<svg id="Layer_1" data-name="Layer 1" xmlns="http://www.w3.org/2000/svg" viewBox="0 0 360 284"><defs><style>.cls-1{fill:#003156;}.cls-10,.cls-2{fill:#002541;}.cls-2,.cls-4,.cls-5{opacity:0.8;}.cls-3,.cls-6,.cls-9{fill:#004d73;}.cls-3{opacity:0.7;}.cls-4,.cls-7{fill:#006799;}.cls-5{fill:#00a47e;}.cls-6{opacity:0.6;}.cls-11,.cls-7{opacity:0.4;}.cls-8{fill:#004173;opacity:0.3;}.cls-9{opacity:0.5;}.cls-10{opacity:0.2;}.cls-11{fill:#001c31;}</style></defs><polyline class="cls-1" points="360 264.39 360 284 0 284 0 0 360 0 360 258.01"/><polyline class="cls-2" points="360 264.39 360 284 0 284 0 162.54 20.67 154.82 103.7 123.78 360 27.96 360 258.01"/><polyline class="cls-3" points="360 264.39 360 284 0 284 0 85 103.7 123.78 186.61 154.79 218.56 166.74 329.43 208.2 360 219.64 360 258.01"/><polyline class="cls-4" points="360 264.39 360 284 0 284 0 211.54 36.7 200.38 71.15 189.9 103.59 180.04 186.61 154.79 360 102.06 360 258.01"/><polyline class="cls-5" points="360 264.39 360 284 0 284 0 148.53 20.67 154.82 103.59 180.04 136.02 189.9 250.66 224.76 360 258.01"/><polyline class="cls-6" points="360 264.39 360 284 0 284 0 228.06 72.13 207.83 103.59 199 136.02 189.9 218.56 166.74 360 127.06 360 258.01"/><polygon class="cls-7" points="360 270.94 360 284 0 284 0 169.94 71.15 189.9 103.59 199 219.07 231.4 322.98 260.56 344.81 266.68 360 270.94"/><polyline class="cls-8" points="360 264.39 360 284 0 284 0 277.45 201.68 235.06 219.07 231.4 250.66 224.76 329.43 208.2 360 201.78 360 258.01"/><polygon class="cls-9" points="360 268.34 360 284 0 284 0 192.66 36.7 200.38 72.13 207.83 201.68 235.06 322.98 260.56 349.06 266.04 360 268.34"/><polygon class="cls-10" points="360 264.39 360 284 230.33 284 344.81 266.68 349.06 266.04 360 264.39"/><rect class="cls-11" width="360" height="284"/></svg>