<?xml version="1.0" encoding="UTF-8"?>
<svg width="288px" height="59px" viewBox="0 0 288 59" version="1.1" xmlns="http://www.w3.org/2000/svg" xmlns:xlink="http://www.w3.org/1999/xlink">
    <title>expert_air_logo_mobile</title>
    <defs>
        <linearGradient x1="49.9973033%" y1="2.98146499e-15%" x2="49.9973033%" y2="100%" id="linearGradient-1">
            <stop stop-color="#3FA280" offset="0%"></stop>
            <stop stop-color="#3A9F81" offset="11%"></stop>
            <stop stop-color="#2D9785" offset="23%"></stop>
            <stop stop-color="#178A8A" offset="36%"></stop>
            <stop stop-color="#027D90" offset="46%"></stop>
            <stop stop-color="#027C90" offset="46%"></stop>
            <stop stop-color="#017094" offset="56%"></stop>
            <stop stop-color="#006895" offset="70%"></stop>
            <stop stop-color="#006696" offset="100%"></stop>
        </linearGradient>
        <linearGradient x1="50%" y1="0%" x2="50%" y2="100%" id="linearGradient-2">
            <stop stop-color="#3FA280" offset="0%"></stop>
            <stop stop-color="#3A9F81" offset="11%"></stop>
            <stop stop-color="#2D9785" offset="23%"></stop>
            <stop stop-color="#178A8A" offset="36%"></stop>
            <stop stop-color="#027D90" offset="46%"></stop>
            <stop stop-color="#027C90" offset="46%"></stop>
            <stop stop-color="#017094" offset="56%"></stop>
            <stop stop-color="#006895" offset="70%"></stop>
            <stop stop-color="#006696" offset="100%"></stop>
        </linearGradient>
        <linearGradient x1="50%" y1="0%" x2="50%" y2="99.9944056%" id="linearGradient-3">
            <stop stop-color="#3FA280" offset="0%"></stop>
            <stop stop-color="#3A9F81" offset="11%"></stop>
            <stop stop-color="#2D9785" offset="23%"></stop>
            <stop stop-color="#178A8A" offset="36%"></stop>
            <stop stop-color="#027D90" offset="46%"></stop>
            <stop stop-color="#027C90" offset="46%"></stop>
            <stop stop-color="#017094" offset="56%"></stop>
            <stop stop-color="#006895" offset="70%"></stop>
            <stop stop-color="#006696" offset="100%"></stop>
        </linearGradient>
        <linearGradient x1="50.0055377%" y1="0%" x2="50.0055377%" y2="100%" id="linearGradient-4">
            <stop stop-color="#3FA280" offset="0%"></stop>
            <stop stop-color="#3A9F81" offset="11%"></stop>
            <stop stop-color="#2D9785" offset="23%"></stop>
            <stop stop-color="#178A8A" offset="36%"></stop>
            <stop stop-color="#027D90" offset="46%"></stop>
            <stop stop-color="#027C90" offset="46%"></stop>
            <stop stop-color="#017094" offset="56%"></stop>
            <stop stop-color="#006895" offset="70%"></stop>
            <stop stop-color="#006696" offset="100%"></stop>
        </linearGradient>
    </defs>
    <g id="Page-1" stroke="none" stroke-width="1" fill="none" fill-rule="evenodd">
        <g id="expert_air_assets-board" transform="translate(-782.000000, -3030.000000)" fill-rule="nonzero">
            <g id="expert_air_logo_mobile" transform="translate(782.000000, 3030.000000)">
                <path d="M12.9701252,53.7990208 C12.8248243,54.5447728 12.5668098,55.2640561 12.2049519,55.9321425 C11.8667621,56.551841 11.4186628,57.1048639 10.882533,57.5642093 C10.3377619,58.0286244 9.71078518,58.3868608 9.03405742,58.6203749 C8.28851007,58.8774074 7.50422863,59.0040051 6.71566569,58.9946068 C5.80987439,59.0019132 4.91003139,58.8477302 4.05835213,58.5392913 C3.25475393,58.2479884 2.52653961,57.7805574 1.92709516,57.1712659 C1.30603068,56.5278579 0.825282384,55.7625609 0.515267373,54.9237955 C0.15482801,53.9244016 -0.0192452193,52.8673831 0.00168642558,51.8051964 C-0.0131428898,50.7401655 0.145572773,49.6798268 0.471602596,48.6658068 C0.751602713,47.793868 1.20971233,46.9896018 1.81689358,46.3039878 C2.40748342,45.6562583 3.13673216,45.1502418 3.95022982,44.8236927 C4.84343012,44.468069 5.79802492,44.2921473 6.75933047,44.3060053 C7.59490382,44.2947966 8.42641723,44.4241145 9.2191129,44.6885535 C9.91259372,44.9212127 10.5574624,45.2792021 11.1216496,45.744719 C11.6464421,46.1832 12.0777654,46.7226535 12.3900074,47.3310464 C12.703797,47.9375669 12.9005963,48.5977305 12.9701252,49.2770522 L9.93022498,49.2770522 C9.5993129,47.8079895 8.28815902,46.7688703 6.7822025,46.7821729 C5.51384469,46.7821729 4.58025018,47.2139257 3.98141895,48.0774311 C3.38258772,48.9409365 3.0838652,50.1253111 3.08525139,51.6305549 C3.08525139,53.1635196 3.38050845,54.3548244 3.97102257,55.2044694 C4.5615367,56.0541144 5.44730789,56.4782438 6.62833614,56.4768578 C7.5335139,56.4768578 8.2591809,56.2460815 8.80533716,55.7845288 C9.38802891,55.2580437 9.78298287,54.5558117 9.93022498,53.7844673 L12.9701252,53.7990208 Z" id="Path" fill="#06416F"></path>
                <path d="M26.8430486,58.9987745 C24.5974315,58.9987745 22.8737124,58.3750451 21.6718914,57.1276055 C20.4700704,55.8801659 19.8684668,54.0921691 19.8670806,51.7636151 C19.8535575,50.7062716 20.0086768,49.6535314 20.3266004,48.6450161 C20.6026208,47.7721848 21.0652095,46.9698301 21.6822878,46.2935924 C22.290991,45.6446732 23.0388523,45.1421212 23.8696852,44.8236927 C25.7907139,44.1476818 27.8849869,44.1476818 29.8060156,44.8236927 C30.6385845,45.1379664 31.3846893,45.6452952 31.9830166,46.3039878 C32.5875192,46.9937287 33.0420922,47.8015412 33.3179112,48.6762021 C33.6365625,49.6987802 33.7909614,50.7654293 33.7753517,51.8363824 C33.7753517,54.2106758 33.1813721,55.9986726 31.993413,57.2003728 C30.8054538,58.4020729 29.0886657,59.001537 26.8430486,58.9987745 Z M26.8430486,56.524771 C27.3666846,56.5272817 27.8862682,56.4328214 28.3754743,56.2460815 C28.8499172,56.0599118 29.276326,55.7692724 29.6230394,55.3957435 C30.0005761,54.9752513 30.2841154,54.4791076 30.4547494,53.9403973 C30.6726132,53.2579554 30.7765821,52.5442946 30.7624821,51.8280662 C30.7624821,50.1980784 30.4270257,48.9617272 29.756113,48.1190124 C29.0852002,47.2762976 28.1141787,46.8563263 26.8430486,46.8590848 C25.5594428,46.8590848 24.5752525,47.2804558 23.8904779,48.1231705 C23.2057033,48.9658853 22.8633161,50.2022365 22.8633161,51.8322243 C22.8633161,53.45944 23.2098619,54.6500518 23.9029536,55.4040597 C24.5960453,56.1580677 25.576077,56.5316065 26.8430486,56.524771 Z" id="Shape" fill="#06416F"></path>
                <path d="M47.9601664,58.9988245 C45.7145493,58.9988245 43.9908303,58.3750451 42.7890092,57.1276055 C41.5871882,55.8801659 40.9848916,54.0942481 40.9821192,51.7698523 C40.968596,50.7125088 41.1237153,49.6597686 41.441639,48.6512533 C41.7167994,47.7780438 42.1794899,46.9755127 42.7973263,46.2998296 C43.4060296,45.6509104 44.1538908,45.1483584 44.9847237,44.8299299 C46.9057524,44.153919 49.0000255,44.153919 50.9210541,44.8299299 C51.753623,45.1442036 52.4997278,45.6515324 53.0980551,46.310225 C53.7025578,46.9999659 54.1571308,47.8077784 54.4329498,48.6824393 C54.751601,49.7050174 54.906,50.7716665 54.8903903,51.8426196 C54.8903903,54.216913 54.2964107,56.0049098 53.1084515,57.20661 C51.9204924,58.4083101 50.2043973,59.0056951 47.9601664,58.9988245 Z M47.9601664,56.533045 C48.4838024,56.5355979 49.003386,56.4411377 49.4925921,56.2543977 C49.967035,56.0682281 50.3934438,55.7775887 50.7401572,55.4040597 C51.117694,54.9835676 51.4012332,54.4874239 51.5718672,53.9487135 C51.7889894,53.2661453 51.8922545,52.5524934 51.8775207,51.8363824 C51.8775207,50.2063947 51.5427574,48.9700434 50.8732308,48.1273287 C50.2037042,47.2846139 49.2264449,46.8632565 47.9414529,46.8632565 C46.6578471,46.8632565 45.6736569,47.2846139 44.9888823,48.1273287 C44.3041077,48.9700434 43.9617204,50.2063947 43.9617204,51.8363824 C43.9617204,53.4635981 44.3082662,54.6542099 45.0013579,55.4082179 C45.6944496,56.1622258 46.6807191,56.5343786 47.9601664,56.5246763 L47.9601664,56.533045 Z" id="Shape" fill="#06416F"></path>
                <polygon id="Path" fill="#06416F" points="62.2842925 58.5226588 62.2842925 44.767558 65.3241927 44.767558 65.3241927 56.0153051 72.5205638 56.0153051 72.5205638 58.5226588"></polygon>
                <polygon id="Path" fill="#06416F" points="79.6919836 58.5226588 79.6919836 44.767558 82.7318837 44.767558 82.7318837 58.5226588"></polygon>
                <polygon id="Path" fill="#06416F" points="99.309944 58.5226588 93.0991493 49.2832894 93.0991493 58.5226588 90.277573 58.5226588 90.277573 44.767558 93.4921323 44.767558 99.2662793 53.6139839 99.2662793 44.767558 102.112807 44.767558 102.112807 58.5226588"></polygon>
                <path d="M120.479044,58.5226588 L120.410428,57.1483961 C120.010255,57.7708133 119.419431,58.2470719 118.726215,58.5060262 C117.878385,58.8446729 116.971309,59.0100934 116.058505,58.9925277 C115.118244,59.0107552 114.187011,58.806289 113.340892,58.3958357 C112.543219,57.9982959 111.835551,57.4414169 111.261617,56.7596108 C110.677952,56.0609381 110.228867,55.2601376 109.937119,54.3977918 C109.631231,53.5080359 109.475926,52.5734908 109.477599,51.632634 C109.471374,50.6642547 109.626676,49.7016149 109.937119,48.7843135 C110.227109,47.9239277 110.688263,47.1311331 111.292806,46.4536805 C111.912255,45.7725399 112.67393,45.2359429 113.523869,44.8819066 C114.510052,44.4835305 115.566921,44.2897199 116.630306,44.3122425 C117.449391,44.3092648 118.264137,44.4312541 119.046423,44.674 C119.752794,44.8863904 120.418428,45.2160114 121.015497,45.649082 C121.561559,46.0472218 122.02249,46.5505196 122.371184,47.129377 C122.71472,47.7067657 122.920359,48.3556383 122.972095,49.0254852 L119.909322,49.0254852 C119.863685,48.7018926 119.74416,48.3931484 119.560004,48.1231705 C119.366187,47.8360726 119.121695,47.586673 118.838496,47.3871812 C118.526722,47.170974 118.183882,47.0034268 117.82173,46.8902844 C117.436518,46.7674975 117.034617,46.7050793 116.630306,46.7052475 C115.404919,46.7052475 114.424195,47.1363072 113.688131,47.9984266 C112.952068,48.8605459 112.584036,50.1086786 112.584036,51.7428245 C112.585815,52.3199971 112.662701,52.8944845 112.812756,53.4518167 C112.959738,54.0080135 113.204008,54.5338099 113.534265,55.0048791 C113.865205,55.4693335 114.294785,55.8548513 114.792226,56.1338119 C115.349081,56.4343622 115.974831,56.5841545 116.607434,56.5683367 C117.081678,56.5717648 117.552504,56.4878986 117.996389,56.3209278 C118.410667,56.1636488 118.792627,55.9318185 119.123356,55.6369151 C119.437404,55.3540274 119.693711,55.0130243 119.878133,54.6327262 C120.059012,54.2543443 120.152122,53.8400122 120.150518,53.4206307 L116.935959,53.4206307 L116.935959,51.1191047 L122.992887,51.1191047 L122.992887,58.5143425 L120.479044,58.5226588 Z" id="Path" fill="#06416F"></path>
                <path d="M149.848804,50.6305241 L152.583051,50.6305241 L152.583051,54.3374989 C152.592866,54.9941154 152.470537,55.6460017 152.223337,56.2543977 C151.995059,56.8097127 151.652128,57.3105963 151.216967,57.7242974 C150.773382,58.1405206 150.248941,58.4610976 149.676225,58.6661143 C149.038122,58.8949133 148.364191,59.0075759 147.686358,58.9987649 C146.93689,59.0118359 146.190517,58.8993995 145.478168,58.6661143 C144.880932,58.4709951 144.327293,58.1617227 143.848016,57.7554834 C143.41166,57.3806676 143.064321,56.9133334 142.831251,56.387458 C142.595995,55.8523286 142.476935,55.2733889 142.481933,54.688861 C142.484094,54.3568598 142.528105,54.0264553 142.612927,53.7054628 C142.696324,53.3787726 142.817022,53.0627571 142.972642,52.7636459 C143.119981,52.4821174 143.307717,52.2236557 143.529887,51.9964705 C143.730904,51.7891521 143.968453,51.6206999 144.230603,51.4995737 C143.107795,50.9451561 142.54639,49.9853207 142.54639,48.6200673 C142.53887,48.0702737 142.674285,47.5279525 142.939373,47.0462143 C143.215666,46.563363 143.597328,46.1490488 144.055944,45.8341188 C144.58065,45.4756305 145.162976,45.2098123 145.777584,45.0482319 C146.505051,44.8536871 147.255655,44.759259 148.008646,44.767558 L148.008646,47.0254237 C147.017525,47.0254237 146.324433,47.1737304 145.929371,47.4703438 C145.534309,47.7669572 145.337471,48.2520726 145.338857,48.92569 C145.305243,49.4335044 145.54244,49.9212918 145.962639,50.2084737 C146.370177,50.4856825 147.055645,50.6242869 148.019042,50.6242869 L148.019042,52.5744509 C147.142974,52.5744509 146.464438,52.7435482 145.983432,53.081743 C145.502426,53.4199377 145.259844,53.9438624 145.255686,54.6535169 C145.253895,54.9322924 145.302499,55.2090973 145.399156,55.4705898 C145.492023,55.7251887 145.641299,55.9554774 145.835803,56.1442072 C146.049684,56.3484338 146.302972,56.5068998 146.580184,56.609918 C146.926272,56.7362815 147.293092,56.7962365 147.661407,56.7866386 C149.119672,56.7866386 149.848804,55.9716448 149.848804,54.341657 L149.848804,50.6305241 Z" id="Path" fill="#06416F"></path>
                <polygon id="Path" fill="#06416F" points="180.709405 58.5226588 180.709405 52.3499117 175.041301 52.3499117 175.041301 58.5226588 172.001401 58.5226588 172.001401 44.767558 175.041301 44.767558 175.041301 49.9465114 180.709405 49.9465114 180.709405 44.767558 183.772178 44.767558 183.772178 58.5226588"></polygon>
                <polygon id="Path" fill="#06416F" points="191.290836 58.5226588 191.290836 44.767558 201.963755 44.767558 201.963755 47.1688792 194.243407 47.1688792 194.243407 50.1107576 201.350369 50.1107576 201.350369 52.5328696 194.243407 52.5328696 194.243407 56.0672818 202.313074 56.0672818 202.313074 58.5122634"></polygon>
                <path d="M219.458776,58.5226588 L218.539736,55.6930499 L213.181444,55.6930499 L212.154283,58.530975 L208.939723,58.530975 L214.121277,44.7758742 L217.643569,44.7758742 L222.760665,58.530975 L219.458776,58.5226588 Z M215.849154,47.854971 L215.828362,47.854971 L213.977807,53.3229146 L217.672679,53.3229146 L215.849154,47.854971 Z" id="Shape" fill="#06416F"></path>
                <polygon id="Path" fill="#06416F" points="230.085951 58.5226588 230.085951 47.1688792 225.719473 47.1688792 225.719473 44.767558 237.527676 44.767558 237.527676 47.1688792 233.132089 47.1688792 233.132089 58.5205797"></polygon>
                <polygon id="Path" fill="#06416F" points="244.694938 58.5226588 244.694938 44.767558 247.734838 44.767558 247.734838 58.5226588"></polygon>
                <polygon id="Path" fill="#06416F" points="264.310819 58.5226588 258.100024 49.2832894 258.100024 58.5226588 255.280527 58.5226588 255.280527 44.767558 258.495086 44.767558 264.267154 53.6139839 264.267154 44.767558 267.111602 44.767558 267.111602 58.5226588"></polygon>
                <path d="M285.481998,58.5226588 L285.415461,57.1546333 C285.015288,57.7770505 284.424464,58.2533091 283.731248,58.5122634 C282.883356,58.8506933 281.976324,59.0161058 281.063538,58.9987649 C280.120702,59.0131249 279.187908,58.8036413 278.341767,58.3875195 C277.543871,57.9903308 276.836136,57.4333993 276.262492,56.7512945 C275.678728,56.0530348 275.230261,55.2520801 274.940073,54.3894755 C274.634185,53.4997197 274.47888,52.5651745 274.480553,51.6243177 C274.474328,50.6559385 274.62963,49.6932986 274.940073,48.7759973 C275.229271,47.9152525 275.690514,47.1223062 276.295761,46.4453642 C276.916057,45.7672332 277.677668,45.2335205 278.526823,44.8819066 C279.512344,44.483752 280.568489,44.2899445 281.63118,44.3122425 C282.450958,44.3091181 283.266411,44.4311083 284.049377,44.674 C284.755108,44.8863846 285.420059,45.2160154 286.016372,45.649082 C286.563457,46.0460757 287.024597,46.5496003 287.372059,47.129377 C287.716807,47.7063678 287.923198,48.3553673 287.975049,49.0254852 L284.912276,49.0254852 C284.86664,48.7018926 284.747114,48.3931484 284.562958,48.1231705 C284.370135,47.8323447 284.125584,47.5793616 283.84145,47.3767858 C283.529273,47.1612663 283.186541,46.9937718 282.824684,46.879889 C282.438793,46.7569553 282.036184,46.6945362 281.63118,46.6948522 C280.408567,46.6948522 279.428535,47.1259119 278.691085,47.9880312 C277.953636,48.8501506 277.585604,50.1017484 277.58699,51.7428245 C277.588769,52.3199971 277.665655,52.8944845 277.815711,53.4518167 C277.961816,54.0083295 278.206155,54.5342755 278.537219,55.0048791 C278.864659,55.4686358 279.290705,55.8541689 279.784784,56.1338119 C280.341465,56.4348177 280.967338,56.5846394 281.599991,56.5683367 C282.074235,56.5717648 282.545061,56.4878986 282.988947,56.3209278 C283.403225,56.1636488 283.785184,55.9318185 284.115914,55.6369151 C284.429961,55.35452 284.68567,55.0133728 284.868612,54.6327262 C285.051102,54.2548244 285.144972,53.8402762 285.143076,53.4206307 L281.928517,53.4206307 L281.928517,51.1191047 L288,51.1191047 L288,58.5143425 L285.481998,58.5226588 Z" id="Path" fill="#06416F"></path>
                <polygon id="Path" fill="#06416F" points="0.00168642558 37.1623345 0.00168642558 0.00110838855 26.3107542 0.00110838855 26.3107542 6.96597956 7.92164525 6.96597956 7.92164525 14.7728725 25.9052955 14.7728725 25.9052955 21.7377436 7.92164525 21.7377436 7.92164525 30.1995424 26.3128334 30.1995424 26.3128334 37.1623345"></polygon>
                <path d="M72.5704664,37.1623345 L72.5704664,0.00110838855 L89.9240963,0.00110838855 C91.7440669,-0.0214892168 93.5517796,0.301636923 95.2511991,0.953320626 C96.7433144,1.51140113 98.0927251,2.39411106 99.2018217,3.53759969 C100.229426,4.63639333 101.031253,5.92625151 101.561799,7.33397425 C102.121725,8.81587032 102.403672,10.3882725 102.393774,11.9723705 C102.403038,13.542893 102.121028,15.1015488 101.561799,16.5691855 C101.026232,17.9771345 100.219469,19.2662714 99.1872668,20.363481 C98.0834364,21.509957 96.7391711,22.3975232 95.2511991,22.9623135 C93.555179,23.6158069 91.7498357,23.9390141 89.9324134,23.9145258 L80.4883459,23.9145258 L80.4883459,37.1623345 L72.5704664,37.1623345 Z M80.4883459,16.9496546 L88.840794,16.9496546 C90.4349049,16.9496546 91.7517791,16.4964182 92.7914166,15.5899454 C93.8310542,14.6834726 94.3522591,13.4776143 94.3550315,11.9723705 C94.3550315,10.4477221 93.8338265,9.23216152 92.7914166,8.32568874 C91.7490067,7.41921595 90.4321325,6.96597956 88.840794,6.96597956 L80.4883459,6.96597956 L80.4883459,16.9496546 Z" id="Shape" fill="#06416F"></path>
                <polygon id="Path" fill="#06416F" points="107.396245 37.1623345 107.396245 0.00110838855 133.705313 0.00110838855 133.705313 6.96597956 115.312045 6.96597956 115.312045 14.7728725 133.301933 14.7728725 133.301933 21.7377436 115.312045 21.7377436 115.312045 30.1995424 133.705313 30.1995424 133.705313 37.1623345"></polygon>
                <path d="M139.853729,37.1623345 L139.853729,0.00110838855 L157.238548,0.00110838855 C161.04778,0.00110838855 164.090453,1.11687382 166.366566,3.34840468 C168.642679,5.57993555 169.780735,8.45459083 169.780735,11.9723705 C169.795745,13.443796 169.556582,14.906767 169.073782,16.2968279 C168.664403,17.5141082 168.01697,18.6378138 167.169166,19.6025428 C166.411327,20.4486425 165.536053,21.1816985 164.570072,21.779325 C163.64948,22.3493749 162.644579,22.7703805 161.59255,23.0267646 L169.999059,37.1644135 L160.850249,37.1644135 L153.56031,23.9706606 L147.771609,23.9706606 L147.771609,37.1644135 L139.853729,37.1623345 Z M147.771609,16.995394 L156.124057,16.995394 C157.718168,16.995394 159.035042,16.5379995 160.074679,15.6232105 C161.114317,14.7084214 161.635522,13.4706841 161.638294,11.9099986 C161.638294,10.4047548 161.117089,9.2030546 160.074679,8.30489808 C159.032269,7.40674156 157.715395,6.9576633 156.124057,6.9576633 L147.771609,6.9576633 L147.771609,16.995394 Z" id="Shape" fill="#06416F"></path>
                <polygon id="Path" fill="#06416F" points="173.344613 6.96597956 173.344613 0.00110838855 203.028344 0.00110838855 203.028344 6.96597956 192.172449 6.96597956 192.172449 37.1623345 184.256649 37.1623345 184.256649 6.96597956"></polygon>
                <path d="M200.608068,37.1623345 L214.917639,0.00110838855 L224.848257,0.00110838855 L239.159907,37.1623345 L230.181598,37.1623345 L227.840334,30.8793969 L211.925562,30.8793969 L209.584298,37.1623345 L200.608068,37.1623345 Z M214.075533,23.9145258 L225.665412,23.9145258 L219.870472,7.9181918 L214.075533,23.9145258 Z" id="Shape" fill="url(#linearGradient-1)"></path>
                <polygon id="Path" fill="url(#linearGradient-2)" points="242.586553 37.1623345 242.586553 0.00110838855 250.504432 0.00110838855 250.504432 37.1623345"></polygon>
                <path d="M257.850511,37.1623345 L257.850511,0.00110838855 L275.23533,0.00110838855 C279.044562,0.00110838855 282.087235,1.11687382 284.363348,3.34840468 C286.639461,5.57993555 287.778211,8.45459083 287.779597,11.9723705 C287.793938,13.4439172 287.554071,14.9068915 287.070564,16.2968279 C286.661185,17.5141082 286.013752,18.6378138 285.165948,19.6025428 C284.408387,20.4481177 283.533878,21.1811193 282.568933,21.779325 C281.647413,22.3490179 280.641886,22.7699916 279.589332,23.0267646 L287.995841,37.1644135 L278.847031,37.1644135 L271.573727,23.9685815 L265.778787,23.9685815 L265.778787,37.1623345 L257.850511,37.1623345 Z M265.768391,16.995394 L274.120839,16.995394 C275.716336,16.995394 277.03321,16.5379995 278.071461,15.6232105 C279.109713,14.7084214 279.630918,13.4706841 279.635076,11.9099986 C279.635076,10.4047548 279.113871,9.2030546 278.071461,8.30489808 C277.029052,7.40674156 275.712177,6.9576633 274.120839,6.9576633 L265.768391,6.9576633 L265.768391,16.995394 Z" id="Shape" fill="url(#linearGradient-3)"></path>
                <g id="Group-9" transform="translate(28.622908, 0.001108)">
                    <polygon id="Path" fill="#06416F" points="10.2591433 0 0.844185687 0 13.4674648 18.1190604 0 37.1612261 9.41495761 37.1612261 18.7737748 23.5599762 18.7737748 23.5599762 22.4582503 18.2043021"></polygon>
                    <polygon id="Path" fill="url(#linearGradient-4)" points="26.9702772 18.0650047 39.5935563 0 30.0725556 0 21.6639672 12.7051725 25.3505219 18.2043021 21.6639672 23.5599762 30.9687232 37.1612261 40.437742 37.1612261"></polygon>
                </g>
            </g>
        </g>
    </g>
</svg>