<?xml version="1.0" encoding="UTF-8"?>
<svg width="311px" height="64px" viewBox="0 0 311 64" version="1.1" xmlns="http://www.w3.org/2000/svg" xmlns:xlink="http://www.w3.org/1999/xlink">
    <title>expert_air_logo_desktop</title>
    <defs>
        <linearGradient x1="49.9973033%" y1="2.98146499e-15%" x2="49.9973033%" y2="100%" id="linearGradient-1">
            <stop stop-color="#3FA280" offset="0%"></stop>
            <stop stop-color="#3A9F81" offset="11%"></stop>
            <stop stop-color="#2D9785" offset="23%"></stop>
            <stop stop-color="#178A8A" offset="36%"></stop>
            <stop stop-color="#027D90" offset="46%"></stop>
            <stop stop-color="#027C90" offset="46%"></stop>
            <stop stop-color="#017094" offset="56%"></stop>
            <stop stop-color="#006895" offset="70%"></stop>
            <stop stop-color="#006696" offset="100%"></stop>
        </linearGradient>
        <linearGradient x1="50%" y1="0%" x2="50%" y2="100%" id="linearGradient-2">
            <stop stop-color="#3FA280" offset="0%"></stop>
            <stop stop-color="#3A9F81" offset="11%"></stop>
            <stop stop-color="#2D9785" offset="23%"></stop>
            <stop stop-color="#178A8A" offset="36%"></stop>
            <stop stop-color="#027D90" offset="46%"></stop>
            <stop stop-color="#027C90" offset="46%"></stop>
            <stop stop-color="#017094" offset="56%"></stop>
            <stop stop-color="#006895" offset="70%"></stop>
            <stop stop-color="#006696" offset="100%"></stop>
        </linearGradient>
        <linearGradient x1="50%" y1="0%" x2="50%" y2="99.9944056%" id="linearGradient-3">
            <stop stop-color="#3FA280" offset="0%"></stop>
            <stop stop-color="#3A9F81" offset="11%"></stop>
            <stop stop-color="#2D9785" offset="23%"></stop>
            <stop stop-color="#178A8A" offset="36%"></stop>
            <stop stop-color="#027D90" offset="46%"></stop>
            <stop stop-color="#027C90" offset="46%"></stop>
            <stop stop-color="#017094" offset="56%"></stop>
            <stop stop-color="#006895" offset="70%"></stop>
            <stop stop-color="#006696" offset="100%"></stop>
        </linearGradient>
        <linearGradient x1="50.0055377%" y1="0%" x2="50.0055377%" y2="100%" id="linearGradient-4">
            <stop stop-color="#3FA280" offset="0%"></stop>
            <stop stop-color="#3A9F81" offset="11%"></stop>
            <stop stop-color="#2D9785" offset="23%"></stop>
            <stop stop-color="#178A8A" offset="36%"></stop>
            <stop stop-color="#027D90" offset="46%"></stop>
            <stop stop-color="#027C90" offset="46%"></stop>
            <stop stop-color="#017094" offset="56%"></stop>
            <stop stop-color="#006895" offset="70%"></stop>
            <stop stop-color="#006696" offset="100%"></stop>
        </linearGradient>
    </defs>
    <g id="Page-1" stroke="none" stroke-width="1" fill="none" fill-rule="evenodd">
        <g id="expert_air_assets-board" transform="translate(-70.000000, -3025.000000)" fill-rule="nonzero">
            <g id="expert_air_logo_desktop" transform="translate(70.000000, 3025.000000)">
                <path d="M14.0059338,58.3582598 C13.849029,59.1672112 13.5704091,59.9474507 13.179653,60.6721546 C12.8144549,61.3443699 12.3305699,61.9442592 11.7516242,62.4425322 C11.1633471,62.9463045 10.4862993,63.3348999 9.75552728,63.5882032 C8.95043969,63.8670182 8.10352466,64.0043445 7.25198622,63.9941497 C6.27385741,64.0020753 5.30215196,63.834826 4.38245664,63.5002482 C3.5146822,63.1842586 2.72831187,62.6772148 2.08099512,62.0162884 C1.41033174,61.3183543 0.891190352,60.4882016 0.556417198,59.5783544 C0.167192746,58.4942662 -0.0207821639,57.3476698 0.0018211054,56.1954673 C-0.0141924956,55.0401796 0.157198376,53.8899816 0.509265303,52.7900277 C0.811626541,51.8441958 1.3063213,50.9717715 1.96199272,50.2280545 C2.59974772,49.5254327 3.38723508,48.9765335 4.26569957,48.6223108 C5.23023183,48.2365495 6.26106164,48.0457191 7.29913811,48.0607515 C8.20144128,48.0485929 9.09936027,48.1888699 9.9553615,48.475719 C10.7042245,48.7280951 11.400593,49.1164226 12.0098369,49.6213901 C12.5765399,50.0970306 13.0423092,50.6822004 13.3794872,51.342152 C13.7183364,52.0000726 13.9308523,52.7161822 14.0059338,53.4530735 L10.7232638,53.4530735 C10.3659247,51.859514 8.95006061,50.7323339 7.32383672,50.7467639 C5.95418646,50.7467639 4.94603404,51.2151058 4.29937949,52.1517896 C3.65272494,53.0884735 3.3301461,54.3732188 3.33164299,56.0060257 C3.33164299,57.6689026 3.65047961,58.9611655 4.28815285,59.8828143 C4.92582609,60.8044631 5.88233595,61.2645357 7.15768243,61.2630322 C8.13514869,61.2630322 8.91876827,61.0126985 9.50854117,60.5120313 C10.1377673,59.9409287 10.5642628,59.1791855 10.7232638,58.342473 L14.0059338,58.3582598 Z" id="Path" fill="#06416F"></path>
                <path d="M28.9867643,63.9986706 C26.5618097,63.9986706 24.7004325,63.3220828 23.4026328,61.968928 C22.104833,60.6157731 21.4551847,58.6762512 21.4536878,56.1503622 C21.4390846,55.0034133 21.606592,53.8614577 21.9499053,52.7674751 C22.247969,51.820675 22.7475006,50.9503242 23.4138594,50.2167782 C24.0711743,49.5128659 24.8787606,48.9677247 25.7759448,48.6223108 C27.8503889,47.8890108 30.111913,47.8890108 32.1863571,48.6223108 C33.0854159,48.9632178 33.8911054,49.5135405 34.5372158,50.2280545 C35.1899947,50.976248 35.6808704,51.8525193 35.9787166,52.801304 C36.3228157,53.9105412 36.4895452,55.0675844 36.4726888,56.2292962 C36.4726888,58.8048009 35.8312734,60.7443228 34.5484425,62.047862 C33.2656116,63.3514012 31.4117188,64.0016672 28.9867643,63.9986706 Z M28.9867643,61.3150058 C29.5522184,61.3177293 30.1132965,61.2152639 30.6415712,61.0126985 C31.1539036,60.8107518 31.6143659,60.495482 31.9887682,60.090298 C32.3964555,59.634171 32.7026385,59.0959811 32.8868995,58.5116174 C33.1221622,57.7713415 33.2344341,56.997201 33.2192081,56.2202752 C33.2192081,54.4521529 32.8569618,53.1110261 32.1324692,52.1968948 C31.4079766,51.2827635 30.3594083,50.8272014 28.9867643,50.8301936 C27.6006482,50.8301936 26.5378595,51.287274 25.7983981,52.2014053 C25.0589366,53.1155366 24.6892059,54.4566634 24.6892059,56.2247857 C24.6892059,57.989901 25.0634273,59.2814121 25.81187,60.099319 C26.5603128,60.917226 27.6186109,61.3224207 28.9867643,61.3150058 Z" id="Shape" fill="#06416F"></path>
                <path d="M51.7903186,63.9987249 C49.365364,63.9987249 47.5039868,63.3220828 46.2061871,61.968928 C44.9083873,60.6157731 44.2579905,58.6785065 44.2549968,56.1571279 C44.2403936,55.010179 44.4079009,53.8682235 44.7512143,52.7742409 C45.0483494,51.8270306 45.5479908,50.9564884 46.2151684,50.223544 C46.8724833,49.5196317 47.6800696,48.9744905 48.5772538,48.6290766 C50.6516979,47.8957766 52.9132219,47.8957766 54.9876661,48.6290766 C55.8867249,48.9699836 56.6924144,49.5203063 57.3385248,50.2348203 C57.9913037,50.9830138 58.4821794,51.859285 58.7800256,52.8080697 C59.1241247,53.917307 59.2908542,55.0743501 59.2739978,56.236062 C59.2739978,58.8115667 58.6325824,60.7510886 57.3497515,62.0546278 C56.0669206,63.3581669 54.2137763,64.0061777 51.7903186,63.9987249 Z M51.7903186,61.3239811 C52.3557727,61.3267503 52.9168509,61.2242849 53.4451255,61.0217196 C53.957458,60.8197729 54.4179202,60.504503 54.7923225,60.099319 C55.2000098,59.643192 55.5061928,59.1050022 55.6904539,58.5206384 C55.9249156,57.7802254 56.0364276,57.0060945 56.0205171,56.2292962 C56.0205171,54.4611739 55.6590193,53.1200471 54.9360235,52.2059158 C54.2130278,51.2917846 53.1577235,50.8347189 51.7701106,50.8347189 C50.3839946,50.8347189 49.3212059,51.2917846 48.5817444,52.2059158 C47.842283,53.1200471 47.4725522,54.4611739 47.4725522,56.2292962 C47.4725522,57.9944115 47.8467736,59.2859226 48.5952164,60.1038295 C49.3436592,60.9217365 50.4086932,61.3254277 51.7903186,61.3149031 L51.7903186,61.3239811 Z" id="Shape" fill="#06416F"></path>
                <polygon id="Path" fill="#06416F" points="67.2583853 63.4822061 67.2583853 48.5614188 70.5410553 48.5614188 70.5410553 60.7623649 78.3121366 60.7623649 78.3121366 63.4822061"></polygon>
                <polygon id="Path" fill="#06416F" points="86.0562739 63.4822061 86.0562739 48.5614188 89.3389439 48.5614188 89.3389439 63.4822061"></polygon>
                <polygon id="Path" fill="#06416F" points="107.240947 63.4822061 100.534151 53.4598393 100.534151 63.4822061 97.4872403 63.4822061 97.4872403 48.5614188 100.958518 48.5614188 107.193795 58.1575418 107.193795 48.5614188 110.267649 48.5614188 110.267649 63.4822061"></polygon>
                <path d="M130.100634,63.4822061 L130.026538,61.9914805 C129.594407,62.666645 128.956399,63.1832644 128.207822,63.4641641 C127.292284,63.8315095 126.312767,64.0109488 125.327066,63.9918944 C124.311715,64.0116666 123.306112,63.7898729 122.392422,63.3446354 C121.531045,62.9134057 120.766862,62.3093336 120.147094,61.5697473 C119.516816,60.811865 119.031866,59.9432001 118.71682,59.0077741 C118.386503,58.0426152 118.218795,57.0288713 118.220602,56.0082809 C118.213879,54.9578357 118.381585,53.9136161 118.71682,52.9185774 C119.029968,51.9852775 119.527951,51.125297 120.180774,50.3904331 C120.849692,49.6515688 121.672195,49.0694974 122.590011,48.685458 C123.654952,48.2533212 124.796224,48.043086 125.944531,48.0675173 C126.82903,48.0642872 127.708842,48.1966146 128.553603,48.4599322 C129.316385,48.6903218 130.035178,49.0478768 130.679929,49.5176482 C131.2696,49.9495287 131.767342,50.4954789 132.143883,51.123392 C132.514854,51.7497119 132.736916,52.4535737 132.792783,53.1801873 L129.485414,53.1801873 C129.436133,52.8291716 129.307061,52.4942627 129.108199,52.2014053 C128.898904,51.889977 128.634886,51.6194419 128.32907,51.403044 C127.992398,51.1685142 127.622178,50.986768 127.231104,50.8640373 C126.815129,50.7308447 126.381132,50.6631369 125.944531,50.6633193 C124.621285,50.6633193 123.562238,51.1309095 122.767392,52.0660898 C121.972546,53.0012702 121.575122,54.3551768 121.575122,56.1278096 C121.577043,56.7538951 121.660069,57.377068 121.822109,57.9816317 C121.980828,58.5849638 122.244606,59.1553192 122.601237,59.6663095 C122.958607,60.1701244 123.422493,60.5883132 123.959661,60.8909146 C124.560987,61.2169353 125.23671,61.3794219 125.919833,61.3622635 C126.43195,61.3659822 126.940377,61.2750086 127.419712,61.0938878 C127.867075,60.9232801 128.279538,60.6718031 128.63668,60.3519079 C128.975807,60.0450466 129.252584,59.675145 129.451734,59.2626183 C129.647058,58.8521701 129.747604,58.4027251 129.745872,57.9478028 L126.274595,57.9478028 L126.274595,55.4512322 L132.815236,55.4512322 L132.815236,63.4731851 L130.100634,63.4822061 Z" id="Path" fill="#06416F"></path>
                <path d="M161.815896,54.9212465 L164.768503,54.9212465 L164.768503,58.9423716 C164.779102,59.6546336 164.647004,60.3617645 164.380061,61.0217196 C164.133553,61.6240951 163.763235,62.1674265 163.293322,62.616187 C162.814311,63.0676834 162.247989,63.4154279 161.629534,63.6378189 C160.940472,63.8860077 160.21272,64.0082179 159.480755,63.9986602 C158.671433,64.012839 157.865455,63.890874 157.096216,63.6378189 C156.451285,63.4261642 155.853431,63.0906822 155.335879,62.6500159 C154.864675,62.2434361 154.489596,61.7364972 154.237913,61.1660561 C153.983869,60.5855768 153.855301,59.9575744 153.860698,59.3235103 C153.863032,58.9633733 153.910558,58.6049685 154.002154,58.2567732 C154.092211,57.9023974 154.222548,57.559601 154.390596,57.2351413 C154.549702,56.9297545 154.752431,56.6493892 154.992344,56.4029511 C155.209414,56.1780633 155.465933,55.9953355 155.749019,55.8639444 C154.536542,55.2625423 153.930303,54.2213648 153.930303,52.740412 C153.922182,52.1440257 154.068411,51.555745 154.35467,51.0331816 C154.653028,50.5094108 155.06517,50.0599852 155.560412,49.7183662 C156.127021,49.3294974 156.755853,49.0411523 157.419544,48.8658786 C158.205107,48.6548471 159.015656,48.5524165 159.828781,48.5614188 L159.828781,51.0106291 C158.758508,51.0106291 158.010065,51.1715041 157.583453,51.4932543 C157.15684,51.8150044 156.944282,52.3412313 156.945779,53.0719349 C156.909481,53.6227845 157.165621,54.1519097 157.619378,54.4634291 C158.059462,54.7641302 158.799672,54.9144808 159.840008,54.9144808 L159.840008,57.0299128 C158.893976,57.0299128 158.16125,57.2133405 157.641831,57.5801958 C157.122412,57.9470511 156.860457,58.5153761 156.855966,59.2851709 C156.854032,59.5875714 156.906518,59.8878344 157.010894,60.1714873 C157.111178,60.4476624 157.272375,60.697467 157.482413,60.9021909 C157.713374,61.1237248 157.98689,61.2956201 158.28624,61.4073687 C158.659967,61.5444409 159.056082,61.6094768 159.453811,61.5990656 C161.028535,61.5990656 161.815896,60.7150045 161.815896,58.9468822 L161.815896,54.9212465 Z" id="Path" fill="#06416F"></path>
                <polygon id="Path" fill="#06416F" points="195.141059 63.4822061 195.141059 56.7863449 189.020294 56.7863449 189.020294 63.4822061 185.737624 63.4822061 185.737624 48.5614188 189.020294 48.5614188 189.020294 54.1792666 195.141059 54.1792666 195.141059 48.5614188 198.448428 48.5614188 198.448428 63.4822061"></polygon>
                <polygon id="Path" fill="#06416F" points="206.567535 63.4822061 206.567535 48.5614188 218.092805 48.5614188 218.092805 51.1662419 209.755901 51.1662419 209.755901 54.357432 217.430433 54.357432 217.430433 56.9848077 209.755901 56.9848077 209.755901 60.8187464 218.47002 60.8187464 218.47002 63.4709298"></polygon>
                <path d="M236.984998,63.4822061 L235.992562,60.4127999 L230.206351,60.4127999 L229.097159,63.4912272 L225.625882,63.4912272 L231.22124,48.5704398 L235.024826,48.5704398 L240.550579,63.4912272 L236.984998,63.4822061 Z M233.087108,51.910477 L233.064654,51.910477 L231.066312,57.8418057 L235.056261,57.8418057 L233.087108,51.910477 Z" id="Shape" fill="#06416F"></path>
                <polygon id="Path" fill="#06416F" points="248.460871 63.4822061 248.460871 51.1662419 243.745681 51.1662419 243.745681 48.5614188 256.496901 48.5614188 256.496901 51.1662419 251.750277 51.1662419 251.750277 63.4799509"></polygon>
                <polygon id="Path" fill="#06416F" points="264.236547 63.4822061 264.236547 48.5614188 267.519217 48.5614188 267.519217 63.4822061"></polygon>
                <polygon id="Path" fill="#06416F" points="285.418975 63.4822061 278.712179 53.4598393 278.712179 63.4822061 275.667514 63.4822061 275.667514 48.5614188 279.138791 48.5614188 285.371823 58.1575418 285.371823 48.5614188 288.443432 48.5614188 288.443432 63.4822061"></polygon>
                <path d="M308.280907,63.4822061 L308.209057,61.9982463 C307.776926,62.6734108 307.138918,63.1900302 306.390341,63.4709298 C305.474736,63.8380402 304.495266,64.0174707 303.509585,63.9986602 C302.491453,64.0142372 301.484164,63.7870008 300.57045,63.3356143 C299.708833,62.9047656 298.944578,62.3006365 298.325122,61.5607263 C297.694737,60.8032919 297.210456,59.9344598 296.897093,58.9987531 C296.566776,58.0335942 296.399069,57.0198503 296.400875,55.9992599 C296.394152,54.9488146 296.561858,53.9045951 296.897093,52.9095563 C297.209387,51.9758671 297.707465,51.115722 298.361047,50.3814121 C299.030881,49.6458123 299.853315,49.0668697 300.770284,48.685458 C301.83451,48.2535615 302.975,48.0433296 304.122559,48.0675173 C305.007805,48.0641282 305.888381,48.1964565 306.733876,48.4599322 C307.495968,48.6903155 308.214023,49.0478811 308.857957,49.5176482 C309.448734,49.9482855 309.9467,50.4944817 310.321911,51.123392 C310.694191,51.7492803 310.917065,52.4532798 310.973056,53.1801873 L307.665687,53.1801873 C307.616406,52.8291716 307.487335,52.4942627 307.288472,52.2014053 C307.08025,51.8859332 306.816169,51.6115109 306.509343,51.3917677 C306.172236,51.1579838 305.802133,50.9762948 305.411378,50.852761 C304.994668,50.7194092 304.559907,50.6517003 304.122559,50.652043 C302.802306,50.652043 301.744008,51.1196332 300.947665,52.0548135 C300.151322,52.9899939 299.753899,54.3476592 299.755396,56.1278096 C299.757317,56.7538951 299.840343,57.377068 300.002382,57.9816317 C300.160155,58.5853066 300.424008,59.1558242 300.781511,59.6663095 C301.1351,60.1693677 301.595171,60.5875731 302.128708,60.8909146 C302.729845,61.2174293 303.405702,61.3799479 304.088879,61.3622635 C304.600997,61.3659822 305.109424,61.2750086 305.588759,61.0938878 C306.036121,60.9232801 306.448584,60.6718031 306.805727,60.3519079 C307.144854,60.045581 307.420984,59.675523 307.618536,59.2626183 C307.8156,58.8526908 307.916966,58.4030115 307.914919,57.9478028 L304.443641,57.9478028 L304.443641,55.4512322 L311,55.4512322 L311,63.4731851 L308.280907,63.4822061 Z" id="Path" fill="#06416F"></path>
                <polygon id="Path" fill="#06416F" points="0.0018211054 40.3116848 0.0018211054 0.00120231979 28.4119602 0.00120231979 28.4119602 7.55631681 8.55427664 7.55631681 8.55427664 16.0248108 27.9741212 16.0248108 27.9741212 23.5799253 8.55427664 23.5799253 8.55427664 32.7588256 28.4142055 32.7588256 28.4142055 40.3116848"></polygon>
                <path d="M78.3660245,40.3116848 L78.3660245,0.00120231979 L97.1055345,0.00120231979 C99.07085,-0.0233103369 101.022929,0.327199374 102.858066,1.03411051 C104.469343,1.63948598 105.926519,2.59700182 107.124189,3.83739628 C108.233859,5.02930802 109.099721,6.42847621 109.672637,7.95549749 C110.277279,9.56297798 110.581743,11.2686346 110.571055,12.9869782 C110.581059,14.6905958 110.276527,16.3813411 109.672637,17.9733538 C109.094299,19.5006205 108.223107,20.8990063 107.108472,22.0891997 C105.916489,23.3328347 104.464869,24.2956183 102.858066,24.9082723 C101.0266,25.6171465 99.0770795,25.9677442 97.1145158,25.9411805 L86.9162347,25.9411805 L86.9162347,40.3116848 L78.3660245,40.3116848 Z M86.9162347,18.386066 L95.9357185,18.386066 C97.6571369,18.386066 99.0791781,17.8944197 100.201842,16.9111272 C101.324506,15.9278347 101.887335,14.619785 101.890329,12.9869782 C101.890329,11.3331223 101.3275,10.0145481 100.201842,9.03125558 C99.0761843,8.04796307 97.6541431,7.55631681 95.9357185,7.55631681 L86.9162347,7.55631681 L86.9162347,18.386066 Z" id="Shape" fill="#06416F"></path>
                <polygon id="Path" fill="#06416F" points="115.973028 40.3116848 115.973028 0.00120231979 144.383167 0.00120231979 144.383167 7.55631681 124.520993 7.55631681 124.520993 16.0248108 143.947574 16.0248108 143.947574 23.5799253 124.520993 23.5799253 124.520993 32.7588256 144.383167 32.7588256 144.383167 40.3116848"></polygon>
                <path d="M151.022603,40.3116848 L151.022603,0.00120231979 L169.795793,0.00120231979 C173.909235,0.00120231979 177.194898,1.21152414 179.652785,3.63216779 C182.110671,6.05281144 183.339614,9.17108158 183.339614,12.9869782 C183.355822,14.5831008 183.097559,16.1700523 182.576202,17.677915 C182.134129,18.9983547 181.434992,20.2172896 180.519481,21.2637753 C179.701121,22.1815784 178.755946,22.9767577 177.712821,23.6250305 C176.71871,24.2433898 175.633556,24.7000738 174.497511,24.9781853 L183.575373,40.3139401 L173.695929,40.3139401 L165.823807,26.0020725 L159.572813,26.0020725 L159.572813,40.3139401 L151.022603,40.3116848 Z M159.572813,18.4356817 L168.592297,18.4356817 C170.313716,18.4356817 171.735757,17.9395249 172.858421,16.9472114 C173.981085,15.9548978 174.543914,14.6122675 174.546908,12.9193205 C174.546908,11.2865136 173.984079,9.98297448 172.858421,9.008703 C171.732763,8.03443152 170.310722,7.54729578 168.592297,7.54729578 L159.572813,7.54729578 L159.572813,18.4356817 Z" id="Shape" fill="#06416F"></path>
                <polygon id="Path" fill="#06416F" points="187.188106 7.55631681 187.188106 0.00120231979 219.242413 0.00120231979 219.242413 7.55631681 207.519554 7.55631681 207.519554 40.3116848 198.971589 40.3116848 198.971589 7.55631681"></polygon>
                <path d="M216.628851,40.3116848 L232.081201,0.00120231979 L242.804889,0.00120231979 L258.259483,40.3116848 L248.564156,40.3116848 L246.035916,33.496295 L228.850173,33.496295 L226.321933,40.3116848 L216.628851,40.3116848 Z M231.171843,25.9411805 L243.687303,25.9411805 L237.429573,8.589225 L231.171843,25.9411805 Z" id="Shape" fill="url(#linearGradient-1)"></path>
                <polygon id="Path" fill="url(#linearGradient-2)" points="261.959784 40.3116848 261.959784 0.00120231979 270.509995 0.00120231979 270.509995 40.3116848"></polygon>
                <path d="M278.44274,40.3116848 L278.44274,0.00120231979 L297.21593,0.00120231979 C301.329371,0.00120231979 304.615035,1.21152414 307.072921,3.63216779 C309.530807,6.05281144 310.760498,9.17108158 310.761995,12.9869782 C310.777482,14.5832322 310.518459,16.1701873 309.996338,17.677915 C309.554265,18.9983547 308.855128,20.2172896 307.939618,21.2637753 C307.121557,22.181009 306.177208,22.9761294 305.135202,23.6250305 C304.140088,24.2430025 303.054259,24.6996519 301.917647,24.9781853 L310.995509,40.3139401 L301.116065,40.3139401 L293.261906,25.9998172 L287.004176,25.9998172 L287.004176,40.3116848 L278.44274,40.3116848 Z M286.99295,18.4356817 L296.012434,18.4356817 C297.735349,18.4356817 299.15739,17.9395249 300.278557,16.9472114 C301.399725,15.9548978 301.962554,14.6122675 301.967044,12.9193205 C301.967044,11.2865136 301.404215,9.98297448 300.278557,9.008703 C299.152899,8.03443152 297.730858,7.54729578 296.012434,7.54729578 L286.99295,7.54729578 L286.99295,18.4356817 Z" id="Shape" fill="url(#linearGradient-3)"></path>
                <g id="Group-9" transform="translate(30.908765, 0.001202)">
                    <polygon id="Path" fill="#06416F" points="11.0784499 0 0.911603294 0 14.5429915 19.654574 0 40.3104825 10.1668466 40.3104825 20.2730693 25.5565843 20.2730693 25.5565843 24.2517911 19.7470396"></polygon>
                    <polygon id="Path" fill="url(#linearGradient-4)" points="29.1241535 19.5959373 42.7555417 0 32.4741833 0 23.3940757 13.781882 27.3750428 19.7470396 23.3940757 25.5565843 33.4419198 40.3104825 43.667145 40.3104825"></polygon>
                </g>
            </g>
        </g>
    </g>
</svg>