<?xml version="1.0" encoding="UTF-8"?>
<svg width="144px" height="30px" viewBox="0 0 144 30" version="1.1" xmlns="http://www.w3.org/2000/svg" xmlns:xlink="http://www.w3.org/1999/xlink">
    <title>expert_air_logo_white_mobile</title>
    <g id="Page-1" stroke="none" stroke-width="1" fill="none" fill-rule="evenodd">
        <g id="expert_air_assets-board" transform="translate(-1087.000000, -287.000000)" fill="#FFFFFF" fill-rule="nonzero">
            <g id="expert_air_logo_white_mobile" transform="translate(1087.000000, 287.000000)">
                <path d="M6.48506258,27.3554343 C6.41241213,27.7346302 6.28340488,28.1003675 6.10247597,28.4400725 C5.93338106,28.7551734 5.70933142,29.0363715 5.44126649,29.2699369 C5.16888097,29.5060802 4.85539259,29.6882343 4.51702871,29.8069703 C4.14425503,29.9376648 3.75211431,30.0020365 3.35783285,29.9972577 C2.90493719,30.0009728 2.4550157,29.9225747 2.02917606,29.7657413 C1.62737697,29.6176212 1.26326981,29.3799444 0.96354758,29.0701352 C0.653015341,28.7429786 0.412641192,28.3538445 0.257633687,27.9273536 C0.0774140048,27.4191873 -0.00962260966,26.8817202 0.00084321279,26.3416253 C-0.00657144492,25.8000842 0.0727863863,25.2609289 0.235801298,24.7453255 C0.375801357,24.3019668 0.604856165,23.8930179 0.90844679,23.5444006 C1.20374171,23.2150466 1.56836608,22.9577501 1.97511491,22.7917082 C2.42171506,22.6108826 2.89901246,22.5214308 3.37966524,22.5284773 C3.79745191,22.5227779 4.21320861,22.5885328 4.60955645,22.7229933 C4.95629686,22.8412946 5.27873118,23.0233231 5.56082481,23.2600266 C5.82322104,23.4829831 6.0388827,23.7572814 6.19500371,24.0666337 C6.35189852,24.375034 6.45029817,24.7107104 6.48506258,25.0561282 L4.96511249,25.0561282 C4.79965645,24.3091472 4.14407951,23.7807815 3.39110125,23.7875456 C2.75692235,23.7875456 2.29012509,24.0070808 1.99070947,24.4461514 C1.69129386,24.8852219 1.5419326,25.4874463 1.54262569,26.2528245 C1.54262569,27.0322981 1.69025422,27.6380463 1.98551129,28.0700692 C2.28076835,28.5020921 2.72365394,28.7177511 3.31416807,28.7170463 C3.76675695,28.7170463 4.12959045,28.5997024 4.40266858,28.3650147 C4.69401445,28.0973103 4.89149144,27.7402432 4.96511249,27.3480342 L6.48506258,27.3554343 Z" id="Path"></path>
                <path d="M13.4215243,29.9993768 C12.2987157,29.9993768 11.4368562,29.6822263 10.8359457,29.047935 C10.2350352,28.4136437 9.93423341,27.5044927 9.93354032,26.3204823 C9.92677874,25.78285 10.0043384,25.2475583 10.1633002,24.7347539 C10.3013104,24.2909414 10.5326048,23.8829644 10.8411439,23.5391148 C11.1454955,23.2091559 11.5194261,22.953621 11.9348426,22.7917082 C12.8953569,22.4479738 13.9424935,22.4479738 14.9030078,22.7917082 C15.3192922,22.9515083 15.6923446,23.2094721 15.9915083,23.5444006 C16.2937596,23.8951163 16.5210461,24.3058684 16.6589556,24.7506112 C16.8182812,25.2705662 16.8954807,25.8129302 16.8876759,26.3574826 C16.8876759,27.5647504 16.5906861,28.4739013 15.9967065,29.0849353 C15.4027269,29.6959693 14.5443328,30.0007815 13.4215243,29.9993768 Z M13.4215243,28.741409 C13.6833423,28.7426856 13.9431341,28.694655 14.1877372,28.5997024 C14.4249586,28.5050399 14.638163,28.3572572 14.8115197,28.1673272 C15.0002881,27.9535176 15.1420577,27.7012412 15.2273747,27.4273206 C15.3363066,27.0803163 15.388291,26.7174379 15.3812411,26.353254 C15.3812411,25.5244467 15.2135129,24.8957935 14.8780565,24.4672944 C14.5426001,24.0387954 14.0570894,23.8252507 13.4215243,23.8266533 C12.7797214,23.8266533 12.2876263,24.0409097 11.945239,24.4694087 C11.6028517,24.8979078 11.431658,25.526561 11.431658,26.3553683 C11.431658,27.1827661 11.6049309,27.7881619 11.9514768,28.1715558 C12.2980226,28.5549497 12.7880385,28.7448847 13.4215243,28.741409 Z" id="Shape"></path>
                <path d="M23.9800832,29.9994023 C22.8572747,29.9994023 21.9954151,29.6822263 21.3945046,29.047935 C20.7935941,28.4136437 20.4924458,27.5055499 20.4910596,26.3236537 C20.484298,25.7860214 20.5618577,25.2507298 20.7208195,24.7379254 C20.8583997,24.2939206 21.0897449,23.8858539 21.3986632,23.5422862 C21.7030148,23.2123273 22.0769454,22.9567924 22.4923619,22.7948796 C23.4528762,22.4511453 24.5000127,22.4511453 25.4605271,22.7948796 C25.8768115,22.9546798 26.2498639,23.2126436 26.5490276,23.547572 C26.8512789,23.8982877 27.0785654,24.3090399 27.2164749,24.7537827 C27.3758005,25.2737376 27.453,25.8161016 27.4451951,26.3606541 C27.4451951,27.5679219 27.1482053,28.4770728 26.5542258,29.0881068 C25.9602462,29.6991407 25.1021987,30.0028958 23.9800832,29.9994023 Z M23.9800832,28.7456161 C24.2419012,28.7469142 24.501693,28.6988836 24.7462961,28.6039311 C24.9835175,28.5092685 25.1967219,28.3614858 25.3700786,28.1715558 C25.558847,27.9577462 25.7006166,27.7054698 25.7859336,27.4315492 C25.8944947,27.0844807 25.9461272,26.7216068 25.9387603,26.3574826 C25.9387603,25.5286753 25.7713787,24.9000221 25.4366154,24.471523 C25.1018521,24.043024 24.6132225,23.8287745 23.9707265,23.8287745 C23.3289236,23.8287745 22.8368284,24.043024 22.4944411,24.471523 C22.1520538,24.9000221 21.9808602,25.5286753 21.9808602,26.3574826 C21.9808602,27.1848804 22.1541331,27.7902762 22.500679,28.1736701 C22.8472248,28.557064 23.3403596,28.7462942 23.9800832,28.7413608 L23.9800832,28.7456161 Z" id="Shape"></path>
                <polygon id="Path" points="31.1421463 29.7572841 31.1421463 22.7631651 32.6620963 22.7631651 32.6620963 28.4823585 36.2602819 28.4823585 36.2602819 29.7572841"></polygon>
                <polygon id="Path" points="39.8459918 29.7572841 39.8459918 22.7631651 41.3659419 22.7631651 41.3659419 29.7572841"></polygon>
                <polygon id="Path" points="49.654972 29.7572841 46.5495747 25.0592997 46.5495747 29.7572841 45.1387865 29.7572841 45.1387865 22.7631651 46.7460662 22.7631651 49.6331396 27.2613477 49.6331396 22.7631651 51.0564034 22.7631651 51.0564034 29.7572841"></polygon>
                <path d="M60.2395219,29.7572841 L60.2052138,29.0585065 C60.0051275,29.3749898 59.7097154,29.6171552 59.3631074,29.7488269 C58.9391927,29.9210201 58.4856543,30.0051323 58.0292525,29.9962005 C57.5591222,30.0054687 57.0935053,29.9015029 56.6704462,29.6927978 C56.2716095,29.4906589 55.9177753,29.2075001 55.6308086,28.860819 C55.3389761,28.5055617 55.1144333,28.0983751 54.9685595,27.6598941 C54.8156154,27.2074759 54.737963,26.7322834 54.7387996,26.2538817 C54.7356868,25.7614855 54.8133382,25.2720076 54.9685595,24.8055831 C55.1135544,24.3680988 55.3441316,23.9649829 55.6464032,23.6205155 C55.9561275,23.2741729 56.3369651,23.0013269 56.7619343,22.8213084 C57.2550261,22.6187443 57.7834606,22.5201966 58.3151528,22.5316487 C58.7246954,22.5301346 59.1320684,22.5921631 59.5232116,22.7155932 C59.876397,22.8235883 60.2092142,22.9911922 60.5077484,23.2113976 C60.7807793,23.4138416 61.011245,23.6697557 61.185592,23.96409 C61.35736,24.2576775 61.4601796,24.5876127 61.4860473,24.9282128 L59.9546612,24.9282128 C59.9318427,24.7636742 59.8720798,24.6066856 59.7800021,24.4694087 C59.6830937,24.3234267 59.5608474,24.1966134 59.4192478,24.0951769 C59.2633611,23.985241 59.0919409,23.9000475 58.9108651,23.8425175 C58.7182591,23.7800835 58.5173086,23.7483454 58.3151528,23.7484309 C57.7024597,23.7484309 57.2120973,23.9676138 56.8440656,24.4059796 C56.476034,24.8443454 56.2920181,25.4789891 56.2920181,26.3099107 C56.2929076,26.6033883 56.3313504,26.8955006 56.4063782,27.1788899 C56.4798689,27.4617018 56.6020039,27.7290559 56.7671325,27.9685826 C56.9326026,28.2047458 57.1473924,28.4007718 57.3961132,28.5426162 C57.6745405,28.6954384 57.9874157,28.771604 58.3037168,28.763561 C58.5408388,28.7653042 58.7762519,28.7226603 58.9981946,28.6377599 C59.2053335,28.5577875 59.3963133,28.4399077 59.5616782,28.2899568 C59.7187018,28.1461156 59.8468556,27.9727242 59.9390666,27.7793523 C60.0295059,27.5869547 60.0760608,27.3762774 60.0752591,27.1630326 L58.4679795,27.1630326 L58.4679795,25.9927651 L61.4964437,25.9927651 L61.4964437,29.7530555 L60.2395219,29.7572841 Z" id="Path"></path>
                <path d="M74.9244022,25.7443343 L76.2915256,25.7443343 L76.2915256,27.6292367 C76.2964332,27.9631095 76.2352685,28.2945771 76.1116683,28.6039311 C75.9975293,28.8862946 75.8260639,29.1409812 75.6084837,29.3513377 C75.3866909,29.5629766 75.1244707,29.7259818 74.8381123,29.8302276 C74.5190609,29.9465661 74.1820955,30.0038522 73.8431792,29.999372 C73.4684448,30.0060183 73.0952587,29.9488472 72.7390841,29.8302276 C72.4404662,29.7310145 72.1636466,29.5737573 71.9240082,29.367195 C71.7058301,29.1766106 71.5321603,28.9389831 71.4156255,28.6715888 C71.2979973,28.3994891 71.2384676,28.105113 71.2409664,27.8078954 C71.2420468,27.6390812 71.2640527,27.471079 71.3064635,27.3078624 C71.348162,27.1417488 71.408511,26.981063 71.4863208,26.8289725 C71.5599904,26.6858224 71.6538586,26.5544012 71.7649437,26.4388833 C71.8654521,26.3334672 71.9842264,26.2478135 72.1153016,26.1862239 C71.5538973,25.9043167 71.2731951,25.4162647 71.2731951,24.7220681 C71.2694348,24.4425121 71.3371423,24.1667555 71.4696866,23.9218039 C71.6078328,23.6762863 71.7986639,23.465618 72.027972,23.3054842 C72.2903248,23.1232019 72.5814882,22.9880401 72.8887919,22.9058806 C73.2525254,22.8069596 73.6278277,22.7589452 74.004323,22.7631651 L74.004323,23.9112324 C73.5087624,23.9112324 73.1622166,23.9866426 72.9646854,24.1374629 C72.7671543,24.2882833 72.6687353,24.5349522 72.6694284,24.8774695 C72.6526213,25.1356802 72.7712201,25.3837077 72.9813196,25.5297324 C73.1850886,25.670686 73.5278224,25.7411629 74.0095212,25.7411629 L74.0095212,26.7327716 C73.5714872,26.7327716 73.2322188,26.8187533 72.991716,26.9907168 C72.7512132,27.1626802 72.6299221,27.4290826 72.6278429,27.7899238 C72.6269474,27.9316741 72.6512495,28.0724224 72.6995779,28.2053847 C72.7460116,28.3348417 72.8206497,28.4519377 72.9179017,28.547902 C73.0248418,28.651746 73.1514858,28.7323219 73.290092,28.7847041 C73.463136,28.8489567 73.6465461,28.8794423 73.8307035,28.874562 C74.559836,28.874562 74.9244022,28.4601584 74.9244022,27.631351 L74.9244022,25.7443343 Z" id="Path"></path>
                <polygon id="Path" points="90.3547027 29.7572841 90.3547027 26.6185992 87.5206507 26.6185992 87.5206507 29.7572841 86.0007006 29.7572841 86.0007006 22.7631651 87.5206507 22.7631651 87.5206507 25.3965312 90.3547027 25.3965312 90.3547027 22.7631651 91.8860888 22.7631651 91.8860888 29.7572841"></polygon>
                <polygon id="Path" points="95.6454181 29.7572841 95.6454181 22.7631651 100.981878 22.7631651 100.981878 23.9841759 97.1217034 23.9841759 97.1217034 25.4800463 100.675185 25.4800463 100.675185 26.7116286 97.1217034 26.7116286 97.1217034 28.5087874 101.156537 28.5087874 101.156537 29.7519984"></polygon>
                <path d="M109.729388,29.7572841 L109.269868,28.3185 L106.590722,28.3185 L106.077141,29.7615127 L104.469862,29.7615127 L107.060638,22.7673937 L108.821784,22.7673937 L111.380332,29.7615127 L109.729388,29.7572841 Z M107.924577,24.3330361 L107.914181,24.3330361 L106.988903,27.1133464 L108.836339,27.1133464 L107.924577,24.3330361 Z" id="Shape"></path>
                <polygon id="Path" points="115.042975 29.7572841 115.042975 23.9841759 112.859737 23.9841759 112.859737 22.7631651 118.763838 22.7631651 118.763838 23.9841759 116.566044 23.9841759 116.566044 29.756227"></polygon>
                <polygon id="Path" points="122.347469 29.7572841 122.347469 22.7631651 123.867419 22.7631651 123.867419 29.7572841"></polygon>
                <polygon id="Path" points="132.155409 29.7572841 129.050012 25.0592997 129.050012 29.7572841 127.640264 29.7572841 127.640264 22.7631651 129.247543 22.7631651 132.133577 27.2613477 132.133577 22.7631651 133.555801 22.7631651 133.555801 29.7572841"></polygon>
                <path d="M142.740999,29.7572841 L142.707731,29.061678 C142.507644,29.3781613 142.212232,29.6203267 141.865624,29.7519984 C141.441678,29.9240813 140.988162,30.0081894 140.531769,29.999372 C140.060351,30.0066737 139.593954,29.9001566 139.170884,29.6885692 C138.771936,29.4866089 138.418068,29.2034234 138.131246,28.8565904 C137.839364,28.5015431 137.615131,28.094278 137.470037,27.6556655 C137.317092,27.2032473 137.23944,26.7280548 137.240277,26.2496531 C137.237164,25.7572569 137.314815,25.267779 137.470037,24.8013545 C137.614636,24.3636877 137.845257,23.9604947 138.14788,23.6162869 C138.458028,23.2714745 138.838834,23.0000952 139.263411,22.8213084 C139.756172,22.6188569 140.284244,22.5203107 140.81559,22.5316487 C141.225479,22.5300601 141.633205,22.592089 142.024689,22.7155932 C142.377554,22.8235854 142.71003,22.9911943 143.008186,23.2113976 C143.281729,23.4132588 143.512298,23.6692883 143.686029,23.96409 C143.858404,24.2574752 143.961599,24.5874749 143.987524,24.9282128 L142.456138,24.9282128 C142.43332,24.7636742 142.373557,24.6066856 142.281479,24.4694087 C142.185068,24.3215312 142.062792,24.1928957 141.920725,24.0898911 C141.764637,23.9803049 141.59327,23.8951382 141.412342,23.8372317 C141.219396,23.774723 141.018092,23.7429845 140.81559,23.7431452 C140.204283,23.7431452 139.714267,23.9623281 139.345543,24.4006938 C138.976818,24.8390596 138.792802,25.4754653 138.793495,26.3099107 C138.794385,26.6033883 138.832827,26.8955006 138.907855,27.1788899 C138.980908,27.4618624 139.103078,27.7292926 139.26861,27.9685826 C139.432329,28.2043911 139.645352,28.4004249 139.892392,28.5426162 C140.170732,28.69567 140.483669,28.7718506 140.799996,28.763561 C141.037118,28.7653042 141.272531,28.7226603 141.494474,28.6377599 C141.701612,28.5577875 141.892592,28.4399077 142.057957,28.2899568 C142.21498,28.1463661 142.342835,27.9729014 142.434306,27.7793523 C142.525551,27.5871988 142.572486,27.3764116 142.571538,27.1630326 L140.964258,27.1630326 L140.964258,25.9927651 L144,25.9927651 L144,29.7530555 L142.740999,29.7572841 Z" id="Path"></path>
                <polygon id="Path" points="0.000843212791 18.8961023 0.000843212791 0.0005635874 13.1553771 0.0005635874 13.1553771 3.54202351 3.96082262 3.54202351 3.96082262 7.51163007 12.9526478 7.51163007 12.9526478 11.05309 3.96082262 11.05309 3.96082262 15.3556995 13.1564167 15.3556995 13.1564167 18.8961023"></polygon>
                <path d="M36.2852332,18.8961023 L36.2852332,0.0005635874 L44.9620481,0.0005635874 C45.8720334,-0.0109267204 46.7758898,0.153374707 47.6255995,0.484739302 C48.3716572,0.768509051 49.0463625,1.2173446 49.6009109,1.7987795 C50.114713,2.35748814 50.5156265,3.01334823 50.7808995,3.72913945 C51.0608624,4.48264593 51.201836,5.28217245 51.1968871,6.08764604 C51.2015192,6.8862168 51.060514,7.67875363 50.7808995,8.42500958 C50.5131158,9.14091586 50.1097343,9.7964092 49.5936334,10.3543124 C49.0417182,10.9372663 48.3695855,11.3885711 47.6255995,11.6757526 C46.7775895,12.0080374 45.8749178,12.1723801 44.9662067,12.1599284 L40.244173,12.1599284 L40.244173,18.8961023 L36.2852332,18.8961023 Z M40.244173,8.61846844 L44.420397,8.61846844 C45.2174524,8.61846844 45.8758895,8.38800926 46.3957083,7.92709089 C46.9155271,7.46617253 47.1761296,6.85302424 47.1775158,6.08764604 C47.1775158,5.31240108 46.9169133,4.69431942 46.3957083,4.23340105 C45.8745034,3.77248269 45.2160662,3.54202351 44.420397,3.54202351 L40.244173,3.54202351 L40.244173,8.61846844 Z" id="Shape"></path>
                <polygon id="Path" points="53.6981224 18.8961023 53.6981224 0.0005635874 66.8526563 0.0005635874 66.8526563 3.54202351 57.6560226 3.54202351 57.6560226 7.51163007 66.6509666 7.51163007 66.6509666 11.05309 57.6560226 11.05309 57.6560226 15.3556995 66.8526563 15.3556995 66.8526563 18.8961023"></polygon>
                <path d="M69.9268645,18.8961023 L69.9268645,0.0005635874 L78.619274,0.0005635874 C80.52389,0.0005635874 82.0452263,0.567901942 83.1832829,1.70257865 C84.3213394,2.83725536 84.8903677,4.29894449 84.8903677,6.08764604 C84.8978726,6.83582848 84.7782909,7.57971201 84.5368909,8.28652264 C84.3322013,8.90547876 84.008485,9.47685448 83.584583,9.96739466 C83.2056636,10.3976149 82.7680265,10.7703552 82.285036,11.074233 C81.8247401,11.364089 81.3222897,11.5781596 80.7962751,11.7085244 L84.9995297,18.8971594 L80.4251245,18.8971594 L76.7801552,12.1884715 L73.8858043,12.1884715 L73.8858043,18.8971594 L69.9268645,18.8961023 Z M73.8858043,8.64172579 L78.0620283,8.64172579 C78.8590838,8.64172579 79.5175209,8.4091523 80.0373397,7.94400533 C80.5571584,7.47885835 80.8177609,6.8495004 80.8191471,6.05593147 C80.8191471,5.29055327 80.5585446,4.67951929 80.0373397,4.22282953 C79.5161347,3.76613978 78.8576976,3.5377949 78.0620283,3.5377949 L73.8858043,3.5377949 L73.8858043,8.64172579 Z" id="Shape"></path>
                <polygon id="Path" points="86.6723065 3.54202351 86.6723065 0.0005635874 101.514172 0.0005635874 101.514172 3.54202351 96.0862244 3.54202351 96.0862244 18.8961023 92.1283243 18.8961023 92.1283243 3.54202351"></polygon>
                <path d="M100.304034,18.8961023 L107.45882,0.0005635874 L112.424128,0.0005635874 L119.579954,18.8961023 L115.090799,18.8961023 L113.920167,15.7013883 L105.962781,15.7013883 L104.792149,18.8961023 L100.304034,18.8961023 Z M107.037766,12.1599284 L112.832706,12.1599284 L109.935236,4.02619922 L107.037766,12.1599284 Z" id="Shape"></path>
                <polygon id="Path" points="121.293276 18.8961023 121.293276 0.0005635874 125.252216 0.0005635874 125.252216 18.8961023"></polygon>
                <path d="M128.925256,18.8961023 L128.925256,0.0005635874 L137.617665,0.0005635874 C139.522281,0.0005635874 141.043617,0.567901942 142.181674,1.70257865 C143.31973,2.83725536 143.889105,4.29894449 143.889798,6.08764604 C143.896969,6.83589008 143.777035,7.57977532 143.535282,8.28652264 C143.330592,8.90547876 143.006876,9.47685448 142.582974,9.96739466 C142.204193,10.397348 141.766939,10.7700607 141.284467,11.074233 C140.823706,11.3639074 140.320943,11.5779618 139.794666,11.7085244 L143.997921,18.8971594 L139.423516,18.8971594 L135.786863,12.1874143 L132.889394,12.1874143 L132.889394,18.8961023 L128.925256,18.8961023 Z M132.884195,8.64172579 L137.060419,8.64172579 C137.858168,8.64172579 138.516605,8.4091523 139.035731,7.94400533 C139.554856,7.47885835 139.815459,6.8495004 139.817538,6.05593147 C139.817538,5.29055327 139.556936,4.67951929 139.035731,4.22282953 C138.514526,3.76613978 137.856089,3.5377949 137.060419,3.5377949 L132.884195,3.5377949 L132.884195,8.64172579 Z" id="Shape"></path>
                <g id="Group-6" transform="translate(14.311454, 0.000564)">
                    <polygon id="Path" points="5.12957165 0 0.422092843 0 6.73373238 9.21308155 0 18.8955387 4.70747881 18.8955387 9.3868874 11.9796489 9.3868874 11.9796489 11.2291251 9.25642479"></polygon>
                    <polygon id="Path" points="13.4851386 9.18559559 19.7967781 0 15.0362778 0 10.8319836 6.46025718 12.675261 9.25642479 10.8319836 11.9796489 15.4843616 18.8955387 20.218871 18.8955387"></polygon>
                </g>
            </g>
        </g>
    </g>
</svg>