<?xml version="1.0" encoding="UTF-8"?>
<svg width="202px" height="42px" viewBox="0 0 202 42" version="1.1" xmlns="http://www.w3.org/2000/svg" xmlns:xlink="http://www.w3.org/1999/xlink">
    <title>expert_air_logo_white</title>
    <g id="Page-1" stroke="none" stroke-width="1" fill="none" fill-rule="evenodd">
        <g id="expert_air_assets-board" transform="translate(-90.000000, -315.000000)" fill="#FFFFFF" fill-rule="nonzero">
            <g id="expert_air_logo_white" transform="translate(90.000000, 315.000000)">
                <path d="M9.09710168,38.297608 C8.99518924,38.8284823 8.81422073,39.3405145 8.56041768,39.8161014 C8.3232151,40.2572428 8.00892324,40.6509201 7.63288771,40.9779117 C7.25079136,41.3085123 6.81103683,41.563528 6.3363875,41.7297584 C5.81346887,41.9127307 5.26338258,42.0028511 4.7102933,41.9961607 C4.07498134,42.0013619 3.44384146,41.8916046 2.84648309,41.6720379 C2.28284825,41.4646697 1.77208681,41.1319222 1.35164313,40.6981893 C0.916035409,40.24017 0.578843894,39.6953823 0.36140281,39.0982951 C0.108594646,38.3868622 -0.013498383,37.6344083 0.00118284016,36.8782754 C-0.00921827691,36.1201178 0.102103125,35.3653004 0.330776821,34.6434557 C0.527165792,34.0227535 0.848478787,33.450225 1.27434897,32.9621608 C1.68858212,32.5010652 2.20006909,32.1408501 2.77064731,31.9083914 C3.39712807,31.6552356 4.06667026,31.5300032 4.74091929,31.5398682 C5.32698115,31.5318891 5.91019542,31.6239459 6.46618336,31.8121906 C6.9525831,31.9778124 7.40488679,32.2326523 7.80060146,32.5640373 C8.16868508,32.8761763 8.47121045,33.260194 8.69021354,33.6932872 C8.91030209,34.1250476 9.04833493,34.5949946 9.09710168,35.0785795 L6.96494947,35.0785795 C6.73285141,34.0328061 5.81322265,33.2930941 4.75696147,33.3025638 C3.8673494,33.3025638 3.21253658,33.6099132 2.79252301,34.224612 C2.37250944,34.8393107 2.16298879,35.6824249 2.16396104,36.7539543 C2.16396104,37.8452173 2.37105106,38.6932648 2.78523111,39.2980969 C3.19941116,39.9029289 3.82068123,40.2048516 4.64904132,40.2038649 C5.28392294,40.2038649 5.79289772,40.0395834 6.17596565,39.7110205 C6.58465916,39.3362345 6.86167549,38.8363405 6.96494947,38.2872479 L9.09710168,38.297608 Z" id="Path"></path>
                <path d="M18.827416,41.9991276 C17.2523651,41.9991276 16.0433677,41.5551168 15.2004238,40.667109 C14.3574799,39.7791011 13.9355219,38.5062898 13.9345496,36.8486752 C13.9250646,36.09599 14.0338636,35.3465816 14.2568517,34.6286555 C14.4504493,34.007318 14.7749039,33.4361502 15.2077157,32.9547607 C15.6346534,32.4928182 16.159195,32.1350693 16.741932,31.9083914 C18.0893201,31.4271633 19.55822,31.4271633 20.9056081,31.9083914 C21.4895627,32.1321117 22.0128723,32.493261 22.4325325,32.9621608 C22.8565239,33.4531628 23.1753564,34.0282158 23.3688127,34.6508557 C23.5923112,35.3787927 23.7006049,36.1381022 23.6896564,36.9004756 C23.6896564,38.5906506 23.2730457,39.8634619 22.4398244,40.7189094 C21.606603,41.574357 20.4024669,42.0010941 18.827416,41.9991276 Z M18.827416,40.2379726 C19.1946885,40.2397598 19.5591187,40.1725169 19.9022424,40.0395834 C20.2350114,39.9070559 20.5340897,39.70016 20.7772707,39.4342581 C21.0420708,39.1349247 21.240942,38.7817376 21.3606228,38.3982489 C21.5134301,37.9124428 21.5863527,37.4044131 21.5764632,36.8945556 C21.5764632,35.7342253 21.3411778,34.8541109 20.870607,34.2542122 C20.4000363,33.6543136 19.7189726,33.3553509 18.827416,33.3573146 C17.9271092,33.3573146 17.2368091,33.6572736 16.7565158,34.2571722 C16.2762225,34.8570709 16.0360758,35.7371853 16.0360758,36.8975156 C16.0360758,38.0558725 16.2791392,38.9034267 16.7652661,39.4401781 C17.2513929,39.9769295 17.9387762,40.2428386 18.827416,40.2379726 Z" id="Shape"></path>
                <path d="M33.6387278,41.9991632 C32.0636769,41.9991632 30.8546796,41.5551168 30.0117357,40.667109 C29.1687918,39.7791011 28.7463476,38.5077699 28.744403,36.8531152 C28.734918,36.10043 28.843717,35.3510217 29.0667051,34.6330956 C29.2596996,34.0114888 29.5842255,33.4401955 30.0175692,32.9592007 C30.4445069,32.4972583 30.9690484,32.1395094 31.5517854,31.9128315 C32.8991736,31.4316034 34.3680734,31.4316034 35.7154616,31.9128315 C36.2994162,32.1365517 36.8227258,32.497701 37.2423859,32.9666008 C37.6663773,33.4576028 37.9852098,34.0326558 38.1786661,34.6552958 C38.4021646,35.3832327 38.5104583,36.1425423 38.4995098,36.9049157 C38.4995098,38.5950906 38.0828992,39.8679019 37.2496778,40.7233495 C36.4164564,41.578797 35.2128064,42.0040541 33.6387278,41.9991632 Z M33.6387278,40.2438626 C34.0060003,40.2456799 34.3704305,40.178437 34.7135542,40.0455035 C35.0463232,39.9129759 35.3454015,39.7060801 35.5885825,39.4401781 C35.8533826,39.1408447 36.0522538,38.7876577 36.1719347,38.4041689 C36.3242217,37.9182729 36.3966507,37.4102495 36.3863166,36.9004756 C36.3863166,35.7401454 36.1515173,34.8600309 35.6819188,34.2601323 C35.2123203,33.6602336 34.5268815,33.3602843 33.6256024,33.3602843 C32.7252955,33.3602843 32.0349955,33.6602336 31.5547022,34.2601323 C31.0744089,34.8600309 30.8342622,35.7401454 30.8342622,36.9004756 C30.8342622,38.0588326 31.0773256,38.9063867 31.5634524,39.4431381 C32.0495793,39.9798896 32.7413377,40.2448119 33.6387278,40.2379052 L33.6387278,40.2438626 Z" id="Shape"></path>
                <polygon id="Path" points="43.6855107 41.6601978 43.6855107 31.8684311 45.8176629 31.8684311 45.8176629 39.875302 50.8651176 39.875302 50.8651176 41.6601978"></polygon>
                <polygon id="Path" points="55.8950718 41.6601978 55.8950718 31.8684311 58.027224 31.8684311 58.027224 41.6601978"></polygon>
                <polygon id="Path" points="69.6548913 41.6601978 65.2987089 35.0830195 65.2987089 41.6601978 63.3196867 41.6601978 63.3196867 31.8684311 65.5743428 31.8684311 69.6242653 38.1658868 69.6242653 31.8684311 71.6207882 31.8684311 71.6207882 41.6601978"></polygon>
                <path d="M84.5026626,41.6601978 L84.4545361,40.6819091 C84.1738594,41.1249858 83.7594619,41.4640173 83.2732479,41.6483577 C82.6785898,41.8894281 82.0423762,42.0071852 81.4021458,41.9946807 C80.7426576,42.0076562 80.0895006,41.8621041 79.4960426,41.569917 C78.9365633,41.2869225 78.4402126,40.8905002 78.0376621,40.4051467 C77.6282859,39.9077864 77.3133023,39.3377251 77.1086738,38.7238518 C76.8941271,38.0904662 76.7851982,37.4251968 76.7863717,36.7554344 C76.7820051,36.0660796 76.8909327,35.3808106 77.1086738,34.7278164 C77.3120694,34.1153384 77.635518,33.5509761 78.0595378,33.0687217 C78.4940121,32.583842 79.0282427,32.2018577 79.62438,31.9498318 C80.3160783,31.666242 81.0573545,31.5282752 81.8032004,31.5443082 C82.3776977,31.5421885 82.9491515,31.6290283 83.4978385,31.8018305 C83.9932791,31.9530237 84.4601477,32.1876691 84.8789248,32.4959566 C85.2619265,32.7793782 85.5852187,33.137658 85.8297888,33.549726 C86.070741,33.9607485 86.2149742,34.4226578 86.2512608,34.8994979 L84.1030664,34.8994979 C84.0710572,34.6691439 83.987223,34.4493599 83.8580585,34.2571722 C83.7221176,34.0527974 83.5506332,33.8752587 83.3520005,33.7332476 C83.133326,33.5793374 82.8928616,33.4600665 82.6388524,33.3795245 C82.368669,33.2921168 82.0867802,33.2476836 81.8032004,33.2478033 C80.9437282,33.2478033 80.2558588,33.5546594 79.7395921,34.1683715 C79.2233254,34.7820836 78.9651921,35.6705847 78.9651921,36.833875 C78.9664398,37.2447437 79.0203665,37.6537009 79.1256139,38.0504458 C79.228705,38.4463825 79.4000332,38.8206782 79.6316719,39.1560156 C79.8637898,39.4866442 80.1650921,39.7610806 80.5139921,39.9596627 C80.9045638,40.1736138 81.3434581,40.2802456 81.7871582,40.2689855 C82.1197878,40.2714258 82.45002,40.2117244 82.7613564,40.0928639 C83.0519262,39.9809025 83.3198283,39.8158708 83.5517986,39.6059396 C83.7720678,39.4045619 83.9518391,39.1618139 84.0811907,38.8910933 C84.2080569,38.6217366 84.2733631,38.3267884 84.2722385,38.0282456 L82.0175823,38.0282456 L82.0175823,36.3898711 L86.2658446,36.3898711 L86.2658446,41.6542777 L84.5026626,41.6601978 Z" id="Path"></path>
                <path d="M105.102286,36.042068 L107.020057,36.042068 L107.020057,38.6809314 C107.026941,39.1483533 106.941141,39.612408 106.767757,40.0455035 C106.607645,40.4408124 106.367117,40.7973736 106.061901,41.0918727 C105.750775,41.3881672 105.382938,41.6163746 104.981241,41.7623187 C104.533683,41.9251925 104.060995,42.005393 103.585571,41.9991208 C103.059902,42.0084256 102.536405,41.9283861 102.036771,41.7623187 C101.617876,41.6234203 101.22956,41.4032602 100.8934,41.1140729 C100.587345,40.8472549 100.343725,40.5145763 100.180252,40.1402243 C100.015246,39.7592848 99.9317392,39.3471582 99.9352445,38.9310536 C99.9367601,38.6947137 99.9676295,38.4595106 100.027122,38.2310074 C100.085616,37.9984483 100.170272,37.7734881 100.279422,37.5605615 C100.382764,37.3601514 100.514441,37.1761617 100.670268,37.0144366 C100.811259,36.866854 100.977873,36.7469389 101.161742,36.6607135 C100.374217,36.2660434 99.9804543,35.5827706 99.9804543,34.6108954 C99.9751794,34.2195169 100.070158,33.8334577 100.256088,33.4905255 C100.449877,33.1468008 100.71757,32.8518653 101.039239,32.6276778 C101.407261,32.3724827 101.815699,32.1832562 102.246778,32.0682329 C102.757015,31.9297434 103.283481,31.8625233 103.81162,31.8684311 L103.81162,33.4757253 C103.116458,33.4757253 102.630332,33.5812996 102.353239,33.7924481 C102.076147,34.0035967 101.938087,34.3489331 101.939059,34.8284573 C101.915483,35.1899523 102.08185,35.5371908 102.376573,35.7416254 C102.662416,35.9389605 103.143195,36.037628 103.818912,36.037628 L103.818912,37.4258803 C103.204447,37.4258803 102.728529,37.5462547 102.391157,37.7870035 C102.053785,38.0277523 101.883641,38.4007156 101.880724,38.9058934 C101.879468,39.1043437 101.913558,39.3013913 101.981352,39.4875385 C102.046488,39.6687784 102.151189,39.8327127 102.287612,39.9670628 C102.437625,40.1124444 102.615279,40.2252507 102.809712,40.2985857 C103.052455,40.3885394 103.309738,40.4312192 103.56807,40.4243868 C104.590881,40.4243868 105.102286,39.8442217 105.102286,38.6838914 L105.102286,36.042068 Z" id="Path"></path>
                <polygon id="Path" points="126.747569 41.6601978 126.747569 37.2660389 122.772024 37.2660389 122.772024 41.6601978 120.639872 41.6601978 120.639872 31.8684311 122.772024 31.8684311 122.772024 35.5551437 126.747569 35.5551437 126.747569 31.8684311 128.895763 31.8684311 128.895763 41.6601978"></polygon>
                <polygon id="Path" points="134.169267 41.6601978 134.169267 31.8684311 141.655134 31.8684311 141.655134 33.5778462 136.240167 33.5778462 136.240167 35.6720648 141.224912 35.6720648 141.224912 37.39628 136.240167 37.39628 136.240167 39.9123023 141.900142 39.9123023 141.900142 41.6527977"></polygon>
                <path d="M153.925947,41.6601978 L153.281343,39.6458999 L149.523096,39.6458999 L148.802656,41.6661178 L146.548,41.6661178 L150.182284,31.8743511 L152.652781,31.8743511 L156.241855,41.6661178 L153.925947,41.6601978 Z M151.394199,34.0662505 L151.379615,34.0662505 L150.081656,37.958685 L152.673198,37.958685 L151.394199,34.0662505 Z" id="Shape"></path>
                <polygon id="Path" points="161.379729 41.6601978 161.379729 33.5778462 158.317131 33.5778462 158.317131 31.8684311 166.599273 31.8684311 166.599273 33.5778462 163.516257 33.5778462 163.516257 41.6587178"></polygon>
                <polygon id="Path" points="171.62631 41.6601978 171.62631 31.8684311 173.758463 31.8684311 173.758463 41.6601978"></polygon>
                <polygon id="Path" points="185.384672 41.6601978 181.028489 35.0830195 181.028489 41.6601978 179.050925 41.6601978 179.050925 31.8684311 181.305581 31.8684311 185.354046 38.1658868 185.354046 31.8684311 187.34911 31.8684311 187.34911 41.6601978"></polygon>
                <path d="M200.233901,41.6601978 L200.187233,40.6863491 C199.906556,41.1294258 199.492159,41.4684573 199.005945,41.6527977 C198.411243,41.8937139 197.77506,42.0114652 197.134843,41.9991208 C196.473548,42.0093431 195.819296,41.8602192 195.225823,41.5639969 C194.666188,41.2812524 194.16979,40.8847927 193.767442,40.3992266 C193.357997,39.9021603 193.043447,39.3319892 192.839912,38.7179317 C192.625366,38.0845462 192.516437,37.4192768 192.51761,36.7495143 C192.513244,36.0601596 192.622171,35.3748905 192.839912,34.7218964 C193.042753,34.1091628 193.366263,33.5446925 193.790776,33.0628017 C194.225845,32.5800643 194.760031,32.2001333 195.355619,31.9498318 C196.046852,31.6663997 196.787621,31.528435 197.532981,31.5443082 C198.107963,31.5420841 198.679913,31.6289246 199.229077,31.8018305 C199.724069,31.9530196 200.190458,32.187672 200.608705,32.4959566 C200.992425,32.7785623 201.315863,33.1370036 201.559569,33.549726 C201.801372,33.9604652 201.946132,34.4224649 201.982499,34.8994979 L199.834305,34.8994979 C199.802296,34.6691439 199.718462,34.4493599 199.589297,34.2571722 C199.454053,34.0501437 199.282528,33.870054 199.083239,33.7258475 C198.864282,33.5724269 198.623893,33.4531935 198.370091,33.3721244 C198.099431,33.2846123 197.817046,33.2401783 197.532981,33.2404032 C196.675453,33.2404032 195.98807,33.5472593 195.470831,34.1609714 C194.953592,34.7746835 194.695458,35.6656514 194.696431,36.833875 C194.697678,37.2447437 194.751605,37.6537009 194.856853,38.0504458 C194.959329,38.4466074 195.130706,38.8210097 195.362911,39.1560156 C195.592573,39.4861475 195.891397,39.7605948 196.237939,39.9596627 C196.628388,40.173938 197.067369,40.2805908 197.511105,40.2689855 C197.843735,40.2714258 198.173967,40.2117244 198.485303,40.0928639 C198.775873,39.9809025 199.043775,39.8158708 199.275745,39.6059396 C199.496014,39.4049125 199.675366,39.162062 199.803679,38.8910933 C199.931676,38.6220784 199.997515,38.3269763 199.996185,38.0282456 L197.741529,38.0282456 L197.741529,36.3898711 L202,36.3898711 L202,41.6542777 L200.233901,41.6601978 Z" id="Path"></path>
                <polygon id="Path" points="0.00118284017 26.4545432 0.00118284017 0.000789022361 18.4540706 0.000789022361 18.4540706 4.95883291 5.55615396 4.95883291 5.55615396 10.5162821 18.1696864 10.5162821 18.1696864 15.474326 5.55615396 15.474326 5.55615396 21.4979793 18.455529 21.4979793 18.455529 26.4545432"></polygon>
                <path d="M50.9001188,26.4545432 L50.9001188,0.000789022361 L63.071762,0.000789022361 C64.3482691,-0.0152974086 65.6161787,0.214724589 66.8081327,0.678635022 C67.8546858,1.07591267 68.8011475,1.70428245 69.5790555,2.51829131 C70.2998057,3.30048339 70.8621983,4.21868752 71.2343173,5.22079523 C71.6270431,6.2757043 71.8247977,7.39504143 71.8178556,8.52270445 C71.8243533,9.64070352 71.6265543,10.7502551 71.2343173,11.7950134 C70.8586763,12.7972822 70.2928217,13.7149729 69.5688469,14.4960373 C68.7946325,15.3121728 67.8517797,15.9439995 66.8081327,16.3460537 C65.618563,16.8112524 64.3523153,17.0413321 63.0775955,17.0238997 L56.4536315,17.0238997 L56.4536315,26.4545432 L50.9001188,26.4545432 Z M56.4536315,12.0658558 L62.3119458,12.0658558 C63.4300374,12.0658558 64.3536784,11.743213 65.0828686,11.0979272 C65.8120588,10.4526415 66.1776262,9.59423394 66.1795707,8.52270445 C66.1795707,7.43736151 65.8140033,6.57204719 65.0828686,5.92676148 C64.3517339,5.28147576 63.4280929,4.95883291 62.3119458,4.95883291 L56.4536315,4.95883291 L56.4536315,12.0658558 Z" id="Shape"></path>
                <polygon id="Path" points="75.3265329 26.4545432 75.3265329 0.000789022361 93.7794206 0.000789022361 93.7794206 4.95883291 80.8785872 4.95883291 80.8785872 10.5162821 93.4964948 10.5162821 93.4964948 15.474326 80.8785872 15.474326 80.8785872 21.4979793 93.7794206 21.4979793 93.7794206 26.4545432"></polygon>
                <path d="M98.0918516,26.4545432 L98.0918516,0.000789022361 L110.285371,0.000789022361 C112.957124,0.000789022361 115.09122,0.795062719 116.687661,2.38361011 C118.284101,3.97215751 119.082321,6.01852229 119.082321,8.52270445 C119.092849,9.57015987 118.925102,10.6115968 118.586472,11.6011317 C118.299338,12.4676703 117.845236,13.2675963 117.250596,13.9543525 C116.719056,14.5566608 116.105148,15.0784972 115.42762,15.5039262 C114.781927,15.9097245 114.077101,16.2094234 113.339219,16.3919341 L119.235451,26.4560232 L112.818577,26.4560232 L107.705496,17.0638601 L103.645364,17.0638601 L103.645364,26.4560232 L98.0918516,26.4545432 Z M103.645364,12.0984161 L109.503679,12.0984161 C110.62177,12.0984161 111.545411,11.7728132 112.274601,11.1216075 C113.003792,10.4704017 113.369359,9.58930056 113.371304,8.47830406 C113.371304,7.40677458 113.005736,6.551327 112.274601,5.91196134 C111.543467,5.27259569 110.619826,4.95291286 109.503679,4.95291286 L103.645364,4.95291286 L103.645364,12.0984161 Z" id="Shape"></path>
                <polygon id="Path" points="121.581985 4.95883291 121.581985 0.000789022361 142.401825 0.000789022361 142.401825 4.95883291 134.78762 4.95883291 134.78762 26.4545432 129.235566 26.4545432 129.235566 4.95883291"></polygon>
                <path d="M140.70427,26.4545432 L150.740844,0.000789022361 L157.706069,0.000789022361 L167.744102,26.4545432 L161.446815,26.4545432 L159.804679,21.9819436 L148.642235,21.9819436 L147.000098,26.4545432 L140.70427,26.4545432 Z M150.1502,17.0238997 L158.279213,17.0238997 L154.214706,5.63667891 L150.1502,17.0238997 Z" id="Shape"></path>
                <polygon id="Path" points="170.147513 26.4545432 170.147513 0.000789022361 175.701025 0.000789022361 175.701025 26.4545432"></polygon>
                <path d="M180.853484,26.4545432 L180.853484,0.000789022361 L193.047002,0.000789022361 C195.718755,0.000789022361 197.852852,0.795062719 199.449293,2.38361011 C201.045733,3.97215751 201.844439,6.01852229 201.845412,8.52270445 C201.855471,9.57024611 201.68723,10.6116854 201.348104,11.6011317 C201.06097,12.4676703 200.606868,13.2675963 200.012227,13.9543525 C199.480883,14.5562872 198.867512,15.0780849 198.19071,15.5039262 C197.544366,15.9094704 196.839101,16.2091465 196.100851,16.3919341 L201.997083,26.4560232 L195.580209,26.4560232 L190.478794,17.06238 L186.414288,17.06238 L186.414288,26.4545432 L180.853484,26.4545432 Z M186.406996,12.0984161 L192.265311,12.0984161 C193.384374,12.0984161 194.308015,11.7728132 195.036233,11.1216075 C195.764451,10.4704017 196.130019,9.58930056 196.132935,8.47830406 C196.132935,7.40677458 195.767368,6.551327 195.036233,5.91196134 C194.305099,5.27259569 193.381458,4.95291286 192.265311,4.95291286 L186.406996,4.95291286 L186.406996,12.0984161 Z" id="Shape"></path>
                <g id="Group-6" transform="translate(20.075790, 0.000789)">
                    <polygon id="Path" points="7.19564912 0 0.592102461 0 9.44593015 12.8983142 0 26.4537542 6.60354666 26.4537542 13.167717 16.7715085 13.167717 16.7715085 15.7519672 12.9589947"></polygon>
                    <polygon id="Path" points="18.9166528 12.8598338 27.7704804 0 21.0925564 0 15.1948659 9.04436006 17.7805744 12.9589947 15.1948659 16.7715085 21.7211184 26.4537542 28.3625829 26.4537542"></polygon>
                </g>
            </g>
        </g>
    </g>
</svg>