<?xml version="1.0" encoding="UTF-8"?>
<svg width="120px" height="25px" viewBox="0 0 120 25" version="1.1" xmlns="http://www.w3.org/2000/svg" xmlns:xlink="http://www.w3.org/1999/xlink">
    <title>header_expertair_logo_color_mobile</title>
    <defs>
        <linearGradient x1="49.9973033%" y1="2.98146499e-15%" x2="49.9973033%" y2="100%" id="linearGradient-1">
            <stop stop-color="#3FA280" offset="0%"></stop>
            <stop stop-color="#3A9F81" offset="11%"></stop>
            <stop stop-color="#2D9785" offset="23%"></stop>
            <stop stop-color="#178A8A" offset="36%"></stop>
            <stop stop-color="#027D90" offset="46%"></stop>
            <stop stop-color="#027C90" offset="46%"></stop>
            <stop stop-color="#017094" offset="56%"></stop>
            <stop stop-color="#006895" offset="70%"></stop>
            <stop stop-color="#006696" offset="100%"></stop>
        </linearGradient>
        <linearGradient x1="50%" y1="0%" x2="50%" y2="100%" id="linearGradient-2">
            <stop stop-color="#3FA280" offset="0%"></stop>
            <stop stop-color="#3A9F81" offset="11%"></stop>
            <stop stop-color="#2D9785" offset="23%"></stop>
            <stop stop-color="#178A8A" offset="36%"></stop>
            <stop stop-color="#027D90" offset="46%"></stop>
            <stop stop-color="#027C90" offset="46%"></stop>
            <stop stop-color="#017094" offset="56%"></stop>
            <stop stop-color="#006895" offset="70%"></stop>
            <stop stop-color="#006696" offset="100%"></stop>
        </linearGradient>
        <linearGradient x1="50%" y1="0%" x2="50%" y2="99.9944056%" id="linearGradient-3">
            <stop stop-color="#3FA280" offset="0%"></stop>
            <stop stop-color="#3A9F81" offset="11%"></stop>
            <stop stop-color="#2D9785" offset="23%"></stop>
            <stop stop-color="#178A8A" offset="36%"></stop>
            <stop stop-color="#027D90" offset="46%"></stop>
            <stop stop-color="#027C90" offset="46%"></stop>
            <stop stop-color="#017094" offset="56%"></stop>
            <stop stop-color="#006895" offset="70%"></stop>
            <stop stop-color="#006696" offset="100%"></stop>
        </linearGradient>
        <linearGradient x1="50.0055377%" y1="0%" x2="50.0055377%" y2="100%" id="linearGradient-4">
            <stop stop-color="#3FA280" offset="0%"></stop>
            <stop stop-color="#3A9F81" offset="11%"></stop>
            <stop stop-color="#2D9785" offset="23%"></stop>
            <stop stop-color="#178A8A" offset="36%"></stop>
            <stop stop-color="#027D90" offset="46%"></stop>
            <stop stop-color="#027C90" offset="46%"></stop>
            <stop stop-color="#017094" offset="56%"></stop>
            <stop stop-color="#006895" offset="70%"></stop>
            <stop stop-color="#006696" offset="100%"></stop>
        </linearGradient>
    </defs>
    <g id="Page-1" stroke="none" stroke-width="1" fill="none" fill-rule="evenodd">
        <g id="expert_air_assets-board" transform="translate(-1100.000000, -363.000000)" fill-rule="nonzero">
            <g id="header_expertair_logo_color_mobile" transform="translate(1100.000000, 363.000000)">
                <path d="M5.40421882,22.4162587 C5.34367678,22.7269887 5.23617073,23.02669 5.08539664,23.3050594 C4.94448422,23.5632671 4.75777618,23.7936933 4.53438874,23.9850872 C4.30740081,24.1785935 4.04616049,24.3278587 3.76419059,24.4251562 C3.45354586,24.5322531 3.12676193,24.5850021 2.79819404,24.5810861 C2.42078099,24.5841305 2.04584641,24.5198876 1.69098005,24.3913714 C1.35614747,24.2699952 1.05272484,24.0752322 0.802956317,23.8213608 C0.544179451,23.5532741 0.34386766,23.2344004 0.214694739,22.8849148 C0.0645116706,22.4685007 -0.00801884138,22.0280763 0.000702677325,21.5854985 C-0.0054762041,21.1417356 0.060655322,20.6999278 0.196501082,20.2774195 C0.313167797,19.9141116 0.504046804,19.5790008 0.757038992,19.2933282 C1.00311809,19.023441 1.30697173,18.8126008 1.64592909,18.6765386 C2.01809588,18.5283621 2.41584372,18.4550614 2.8163877,18.4608355 C3.16454326,18.4561652 3.51100718,18.5100477 3.84129704,18.6202306 C4.13024738,18.7171719 4.39894265,18.8663342 4.63402067,19.0602996 C4.8526842,19.243 5.03240225,19.4677723 5.16250309,19.7212693 C5.29324876,19.9739862 5.37524848,20.2490544 5.40421882,20.5321051 L4.13759374,20.5321051 C3.99971371,19.9199956 3.45339959,19.4870293 2.82591771,19.4925721 C2.29743529,19.4925721 1.90843757,19.672469 1.65892456,20.0322629 C1.40941155,20.3920569 1.28494383,20.8855463 1.28552141,21.5127312 C1.28552141,22.1514665 1.40854519,22.6478435 1.65459274,23.0018622 C1.90064029,23.355881 2.26971162,23.5326016 2.76180673,23.5320241 C3.13896412,23.5320241 3.44132538,23.4358673 3.66889048,23.2435537 C3.91167871,23.0241849 4.07624286,22.7315882 4.13759374,22.4101947 L5.40421882,22.4162587 Z" id="Path" fill="#06416F"></path>
                <path d="M11.1846036,24.5828227 C10.2489298,24.5828227 9.53071351,24.3229354 9.02995476,23.8031689 C8.52919601,23.2834024 8.27852785,22.5384038 8.27795027,21.568173 C8.27231561,21.1276132 8.33694867,20.6889714 8.46941685,20.2687567 C8.58442532,19.905077 8.77717063,19.5707625 9.03428658,19.2889968 C9.28791293,19.0186139 9.59952178,18.8092172 9.94570216,18.6765386 C10.7461308,18.3948674 11.6187446,18.3948674 12.4191732,18.6765386 C12.7660769,18.807486 13.0769539,19.018873 13.3262569,19.2933282 C13.578133,19.5807203 13.7675384,19.9173088 13.882463,20.2817509 C14.0152344,20.7078251 14.0795673,21.1522622 14.0730632,21.5984927 C14.0730632,22.5877816 13.8255717,23.3327803 13.3305887,23.8334887 C12.8356058,24.3341971 12.1202774,24.5839737 11.1846036,24.5828227 Z M11.1846036,23.5519879 C11.4027852,23.553034 11.6192784,23.5136756 11.8231143,23.4358673 C12.0207988,23.3582966 12.1984691,23.2371969 12.3429331,23.0815598 C12.5002401,22.9063547 12.6183814,22.6996282 12.6894789,22.4751655 C12.7802555,22.1908148 12.8235759,21.8934561 12.8177009,21.5950276 C12.8177009,20.915866 12.6779274,20.4007196 12.3983804,20.0495885 C12.1188334,19.6984573 11.7142411,19.5234693 11.1846036,19.5246186 C10.6497678,19.5246186 10.2396886,19.7001899 9.95436581,20.0513211 C9.66904306,20.4024522 9.52638169,20.9175986 9.52638169,21.5967601 C9.52638169,22.2747667 9.67077579,22.7708549 9.959564,23.0850249 C10.2483522,23.3991949 10.6566987,23.5548361 11.1846036,23.5519879 Z" id="Shape" fill="#06416F"></path>
                <path d="M19.9834027,24.5828435 C19.0477289,24.5828435 18.3295126,24.3229354 17.8287539,23.8031689 C17.3279951,23.2834024 17.0770382,22.5392701 17.075883,21.5707718 C17.0702483,21.130212 17.1348814,20.6915702 17.2673496,20.2713555 C17.3819998,19.9075183 17.5747874,19.5731303 17.8322193,19.2915957 C18.0858457,19.0212127 18.3974545,18.811816 18.7436349,18.6791375 C19.5440635,18.3974663 20.4166773,18.3974663 21.2171059,18.6791375 C21.5640096,18.8100848 21.8748866,19.0214718 22.1241896,19.2959271 C22.3760657,19.5833191 22.5654712,19.9199077 22.6803957,20.2843497 C22.8131671,20.7104239 22.8775,21.1548611 22.8709959,21.6010915 C22.8709959,22.5903804 22.6235045,23.3353791 22.1285215,23.8360875 C21.6335385,24.3367959 20.9184989,24.5857063 19.9834027,24.5828435 Z M19.9834027,23.5554354 C20.2015843,23.5564991 20.4180775,23.5171407 20.6219134,23.4393324 C20.8195979,23.3617617 20.9972682,23.240662 21.1417322,23.0850249 C21.2990392,22.9098198 21.4171805,22.7030933 21.488278,22.4786306 C21.5787456,22.1942272 21.6217727,21.8968722 21.6156336,21.5984927 C21.6156336,20.9193311 21.4761489,20.4041848 21.1971795,20.0530536 C20.9182101,19.7019225 20.5110187,19.5263569 19.9756054,19.5263569 C19.4407696,19.5263569 19.0306904,19.7019225 18.7453676,20.0530536 C18.4600449,20.4041848 18.3173835,20.9193311 18.3173835,21.5984927 C18.3173835,22.2764992 18.4617776,22.7725875 18.7505658,23.0867574 C19.039354,23.4009274 19.4502996,23.5559911 19.9834027,23.5519485 L19.9834027,23.5554354 Z" id="Shape" fill="#06416F"></path>
                <polygon id="Path" fill="#06416F" points="25.9517885 24.3844412 25.9517885 18.6531492 27.2184136 18.6531492 27.2184136 23.3397105 30.2169016 23.3397105 30.2169016 24.3844412"></polygon>
                <polygon id="Path" fill="#06416F" points="33.2049932 24.3844412 33.2049932 18.6531492 34.4716182 18.6531492 34.4716182 24.3844412"></polygon>
                <polygon id="Path" fill="#06416F" points="41.3791434 24.3844412 38.7913122 20.5347039 38.7913122 24.3844412 37.6156554 24.3844412 37.6156554 18.6531492 38.9550551 18.6531492 41.3609497 22.33916 41.3609497 18.6531492 42.5470029 18.6531492 42.5470029 24.3844412"></polygon>
                <path d="M50.1996016,24.3844412 L50.1710115,23.8118317 C50.0042729,24.0711722 49.7580962,24.2696133 49.4692562,24.3775109 C49.1159939,24.5186137 48.7380453,24.5875389 48.3577104,24.5802199 C47.9659352,24.5878146 47.5779211,24.5026204 47.2253718,24.3315982 C46.8930079,24.1659566 46.5981461,23.9339237 46.3590072,23.6498378 C46.1158134,23.3587242 45.9286944,23.0250573 45.8071329,22.6657466 C45.6796795,22.295015 45.6149692,21.9056211 45.6156663,21.5135975 C45.6130723,21.1101061 45.6777818,20.7090062 45.8071329,20.3267973 C45.927962,19.9683032 46.1201097,19.6379721 46.3720027,19.3557002 C46.6301062,19.0718916 46.9474709,18.8483096 47.3016119,18.7007944 C47.7125217,18.5348044 48.1528838,18.45405 48.5959606,18.4634344 C48.9372462,18.4621937 49.2767236,18.5130225 49.6026763,18.6141667 C49.8969975,18.7026627 50.1743451,18.8400047 50.4231236,19.0204508 C50.6506494,19.1863424 50.8427042,19.3960498 50.9879934,19.6372404 C51.1311333,19.877819 51.2168163,20.1481826 51.2383727,20.4272855 L49.9622177,20.4272855 C49.9432023,20.2924553 49.8933998,20.1638118 49.8166684,20.0513211 C49.7359114,19.9316969 49.6340395,19.8277804 49.5160399,19.7446588 C49.3861343,19.6545725 49.2432841,19.5847612 49.0923876,19.5376185 C48.9318826,19.4864573 48.7644239,19.4604497 48.5959606,19.4605198 C48.0853831,19.4605198 47.6767478,19.640128 47.3700547,19.9993444 C47.0633616,20.3585608 46.9100151,20.8786161 46.9100151,21.5595102 C46.9107563,21.7999988 46.942792,22.0393686 47.0053152,22.2715903 C47.0665574,22.503339 47.1683366,22.7224208 47.3059437,22.9186996 C47.4438355,23.1122223 47.622827,23.2728547 47.8300943,23.3890883 C48.0621171,23.5143176 48.3228464,23.5767311 48.5864306,23.5701403 C48.7840323,23.5715687 48.9802099,23.5366244 49.1651622,23.4670533 C49.3377779,23.4015203 49.4969277,23.3049244 49.6347318,23.182048 C49.7655848,23.0641781 49.8723796,22.9220935 49.9492222,22.7636359 C50.0245883,22.6059768 50.063384,22.4333384 50.062716,22.2585961 L48.7233162,22.2585961 L48.7233162,21.2996269 L51.2470364,21.2996269 L51.2470364,24.380976 L50.1996016,24.3844412 Z" id="Path" fill="#06416F"></path>
                <path d="M62.4370018,21.0960517 L63.5762713,21.0960517 L63.5762713,22.6406245 C63.580361,22.9142147 63.5293904,23.185834 63.4263902,23.4393324 C63.3312744,23.6707136 63.1883866,23.8794151 63.0070698,24.0517906 C62.8222424,24.2252169 62.6037256,24.3587907 62.3650936,24.4442143 C62.0992174,24.5395472 61.8184129,24.58649 61.5359826,24.5828187 C61.223704,24.588265 60.9127156,24.5414164 60.6159034,24.4442143 C60.3670552,24.3629146 60.1363722,24.2340511 59.9366735,24.0647848 C59.7548584,23.9086115 59.6101336,23.7138889 59.5130212,23.4947742 C59.4149978,23.2718036 59.3653896,23.0305787 59.367472,22.7870254 C59.3683723,22.6486916 59.3867106,22.5110231 59.422053,22.3772762 C59.4568017,22.2411552 59.5070925,22.1094821 59.571934,21.9848525 C59.6333254,21.8675489 59.7115488,21.7598565 59.8041198,21.6651961 C59.8878767,21.5788134 59.9868553,21.508625 60.0960846,21.4581557 C59.6282477,21.2271484 59.3943293,20.8272169 59.3943293,20.2583614 C59.3911957,20.0292807 59.4476185,19.8033135 59.5580722,19.6025893 C59.673194,19.4014013 59.8322199,19.2287703 60.02331,19.0975495 C60.2419373,18.9481794 60.4845735,18.8374218 60.7406599,18.7700966 C61.0437712,18.6890363 61.3565231,18.6496912 61.6702691,18.6531492 L61.6702691,19.5939265 C61.257302,19.5939265 60.9685138,19.655721 60.8039045,19.7793099 C60.6392952,19.9028988 60.5572794,20.1050303 60.557857,20.3857042 C60.5438511,20.5972935 60.6426835,20.8005382 60.8177664,20.9201974 C60.9875738,21.0357011 61.2731854,21.0934529 61.674601,21.0934529 L61.674601,21.9060212 C61.3095727,21.9060212 61.026849,21.9764784 60.82643,22.1173929 C60.626011,22.2583074 60.5249351,22.4766093 60.5232024,22.7722987 C60.5224562,22.8884552 60.542708,23.0037905 60.5829815,23.1127458 C60.6216763,23.2188286 60.6838747,23.3147822 60.7649181,23.3934197 C60.8540348,23.4785141 60.9595715,23.5445416 61.0750767,23.5874658 C61.21928,23.6401173 61.3721218,23.6650985 61.5255863,23.6610994 C62.1331966,23.6610994 62.4370018,23.3215186 62.4370018,22.6423571 L62.4370018,21.0960517 Z" id="Path" fill="#06416F"></path>
                <polygon id="Path" fill="#06416F" points="75.2955855 24.3844412 75.2955855 21.8124632 72.9338756 21.8124632 72.9338756 24.3844412 71.6672505 24.3844412 71.6672505 18.6531492 72.9338756 18.6531492 72.9338756 20.8110464 75.2955855 20.8110464 75.2955855 18.6531492 76.5717406 18.6531492 76.5717406 24.3844412"></polygon>
                <polygon id="Path" fill="#06416F" points="79.7045151 24.3844412 79.7045151 18.6531492 84.1515647 18.6531492 84.1515647 19.6536997 80.9347529 19.6536997 80.9347529 20.8794824 83.8959871 20.8794824 83.8959871 21.8886956 80.9347529 21.8886956 80.9347529 23.3613674 84.297114 23.3613674 84.297114 24.3801098"></polygon>
                <path d="M91.4411566,24.3844412 L91.058218,23.2054375 L88.8256018,23.2054375 L88.3976177,24.3879063 L87.058218,24.3879063 L89.2171986,18.6566143 L90.6848203,18.6566143 L92.8169436,24.3879063 L91.4411566,24.3844412 Z M89.9371476,19.9395713 L89.928484,19.9395713 L89.1574195,22.2178811 L90.6969494,22.2178811 L89.9371476,19.9395713 Z" id="Shape" fill="#06416F"></path>
                <polygon id="Path" fill="#06416F" points="95.8691462 24.3844412 95.8691462 19.6536997 94.0497805 19.6536997 94.0497805 18.6531492 98.9698652 18.6531492 98.9698652 19.6536997 97.1383704 19.6536997 97.1383704 24.3835749"></polygon>
                <polygon id="Path" fill="#06416F" points="101.956224 24.3844412 101.956224 18.6531492 103.222849 18.6531492 103.222849 24.3844412"></polygon>
                <polygon id="Path" fill="#06416F" points="110.129508 24.3844412 107.541677 20.5347039 107.541677 24.3844412 106.366886 24.3844412 106.366886 18.6531492 107.706286 18.6531492 110.111314 22.33916 110.111314 18.6531492 111.296501 18.6531492 111.296501 24.3844412"></polygon>
                <path d="M118.950832,24.3844412 L118.923109,23.8144306 C118.75637,24.0737711 118.510193,24.2722121 118.221353,24.3801098 C117.868065,24.5211222 117.490135,24.5900441 117.109808,24.5828187 C116.716959,24.588802 116.328295,24.5015172 115.975736,24.3281331 C115.64328,24.1626378 115.34839,23.930583 115.109372,23.6463727 C114.866137,23.3554312 114.679275,23.0217 114.558364,22.6622815 C114.43091,22.2915499 114.3662,21.902156 114.366897,21.5101324 C114.364303,21.106641 114.429013,20.7055411 114.558364,20.3233322 C114.678863,19.9646885 114.871047,19.6342942 115.123234,19.3522351 C115.38169,19.0696805 115.699028,18.8473002 116.052843,18.7007944 C116.463477,18.5348967 116.903537,18.4541435 117.346325,18.4634344 C117.687899,18.4621326 118.027671,18.5129618 118.353907,18.6141667 C118.647962,18.7026603 118.925025,18.8400064 119.173488,19.0204508 C119.401441,19.1858649 119.593582,19.3956668 119.738358,19.6372404 C119.882003,19.8776532 119.967999,20.1480697 119.989604,20.4272855 L118.713449,20.4272855 C118.694433,20.2924553 118.644631,20.1638118 118.567899,20.0513211 C118.487556,19.9301436 118.38566,19.824734 118.267271,19.7403274 C118.137197,19.6505276 117.994392,19.5807382 117.843618,19.5332871 C117.68283,19.4820647 117.515077,19.4560568 117.346325,19.4561884 C116.836903,19.4561884 116.428556,19.6357966 116.121286,19.995013 C115.814015,20.3542294 115.660668,20.8757285 115.661246,21.5595102 C115.661987,21.7999988 115.694023,22.0393686 115.756546,22.2715903 C115.817423,22.5034706 115.919231,22.7226148 116.057175,22.9186996 C116.193608,23.1119316 116.371127,23.2725704 116.576993,23.3890883 C116.808944,23.5145074 117.069724,23.5769331 117.33333,23.5701403 C117.530931,23.5715687 117.727109,23.5366244 117.912061,23.4670533 C118.084677,23.4015203 118.243827,23.3049244 118.381631,23.182048 C118.512484,23.0643833 118.619029,22.9222387 118.695255,22.7636359 C118.771293,22.6061768 118.810405,22.4334484 118.809615,22.2585961 L117.470215,22.2585961 L117.470215,21.2996269 L120,21.2996269 L120,24.380976 L118.950832,24.3844412 Z" id="Path" fill="#06416F"></path>
                <polygon id="Path" fill="#06416F" points="0.000702677325 15.484306 0.000702677325 0.000461828564 10.9628142 0.000461828564 10.9628142 2.90249148 3.30068552 2.90249148 3.30068552 6.15536353 10.7938731 6.15536353 10.7938731 9.05739319 3.30068552 9.05739319 3.30068552 12.5831426 10.9636806 12.5831426 10.9636806 15.484306"></polygon>
                <path d="M30.2376943,15.484306 L30.2376943,0.000461828564 L37.4683735,0.000461828564 C38.2266945,-0.00895384034 38.9799082,0.125682051 39.6879996,0.397216928 C40.3097143,0.629750473 40.8719688,0.997546273 41.3340924,1.47399987 C41.7622608,1.93183056 42.0963554,2.46927146 42.3174162,3.0558226 C42.5507187,3.6732793 42.6681967,4.32844687 42.6640726,4.98848773 C42.6679326,5.6428721 42.5504283,6.292312 42.3174162,6.9038273 C42.0942632,7.49047272 41.7581119,8.0276131 41.3280278,8.48478375 C40.8680985,8.96248208 40.3079879,9.33230132 39.6879996,9.56763064 C38.9813246,9.83991955 38.2290982,9.97458922 37.4718389,9.96438574 L33.5368108,9.96438574 L33.5368108,15.484306 L30.2376943,15.484306 Z M33.5368108,7.06235608 L37.0169975,7.06235608 C37.6812104,7.06235608 38.229908,6.87350759 38.6630903,6.49581059 C39.0962726,6.1181136 39.3134413,5.61567264 39.3145965,4.98848773 C39.3145965,4.35321755 39.0974277,3.84673397 38.6630903,3.46903697 C38.2287528,3.09133998 37.6800552,2.90249148 37.0169975,2.90249148 L33.5368108,2.90249148 L33.5368108,7.06235608 Z" id="Shape" fill="#06416F"></path>
                <polygon id="Path" fill="#06416F" points="44.7484354 15.484306 44.7484354 0.000461828564 55.7105469 0.000461828564 55.7105469 2.90249148 48.0466855 2.90249148 48.0466855 6.15536353 55.5424722 6.15536353 55.5424722 9.05739319 48.0466855 9.05739319 48.0466855 12.5831426 55.7105469 12.5831426 55.7105469 15.484306"></polygon>
                <path d="M58.2723871,15.484306 L58.2723871,0.000461828564 L65.5160617,0.000461828564 C67.1032417,0.000461828564 68.3710219,0.465364092 69.3194024,1.39516862 C70.2677829,2.32497314 70.7419731,3.52274618 70.7419731,4.98848773 C70.7482272,5.60158167 70.6485757,6.2111529 70.4474091,6.79034494 C70.2768344,7.29754509 70.0070708,7.76575576 69.6538191,8.16772618 C69.338053,8.52026773 68.9733554,8.8257077 68.5708634,9.07471874 C68.1872835,9.31223956 67.7685747,9.48765854 67.3302292,9.59448524 L70.8329414,15.4851723 L67.020937,15.4851723 L63.9834627,9.98777523 L61.5715036,9.98777523 L61.5715036,15.4851723 L58.2723871,15.484306 Z M61.5715036,7.08141419 L65.0516903,7.08141419 C65.7159031,7.08141419 66.2646007,6.89083314 66.697783,6.50967103 C67.1309654,6.12850893 67.3481341,5.61278505 67.3492892,4.9624994 C67.3492892,4.33531448 67.1321205,3.83460608 66.697783,3.4603742 C66.2634456,3.08614232 65.714748,2.89902637 65.0516903,2.89902637 L61.5715036,2.89902637 L61.5715036,7.08141419 Z" id="Shape" fill="#06416F"></path>
                <polygon id="Path" fill="#06416F" points="72.2269221 2.90249148 72.2269221 0.000461828564 84.5951434 0.000461828564 84.5951434 2.90249148 80.0718537 2.90249148 80.0718537 15.484306 76.7736036 15.484306 76.7736036 2.90249148"></polygon>
                <path d="M83.586695,15.484306 L89.5490163,0.000461828564 L93.6867737,0.000461828564 L99.6499614,15.484306 L95.908999,15.484306 L94.9334724,12.8664154 L88.3023176,12.8664154 L87.326791,15.484306 L83.586695,15.484306 Z M89.1981386,9.96438574 L94.027255,9.96438574 L91.6126968,3.29924658 L89.1981386,9.96438574 Z" id="Shape" fill="url(#linearGradient-1)"></path>
                <polygon id="Path" fill="url(#linearGradient-2)" points="101.07773 15.484306 101.07773 0.000461828564 104.376847 0.000461828564 104.376847 15.484306"></polygon>
                <path d="M107.437713,15.484306 L107.437713,0.000461828564 L114.681388,0.000461828564 C116.268568,0.000461828564 117.536348,0.465364092 118.484728,1.39516862 C119.433109,2.32497314 119.907588,3.52274618 119.908165,4.98848773 C119.914141,5.60163215 119.814196,6.21120478 119.612735,6.79034494 C119.44216,7.29754509 119.172397,7.76575576 118.819145,8.16772618 C118.503495,8.52004905 118.139116,8.82546639 117.737056,9.07471874 C117.353089,9.3120908 116.934119,9.48749649 116.495555,9.59448524 L119.998267,15.4851723 L116.186263,15.4851723 L113.155719,9.98690895 L110.741161,9.98690895 L110.741161,15.484306 L107.437713,15.484306 Z M110.736829,7.08141419 L114.217016,7.08141419 C114.881807,7.08141419 115.430504,6.89083314 115.863109,6.50967103 C116.295714,6.12850893 116.512882,5.61278505 116.514615,4.9624994 C116.514615,4.33531448 116.297446,3.83460608 115.863109,3.4603742 C115.428771,3.08614232 114.880074,2.89902637 114.217016,2.89902637 L110.736829,2.89902637 L110.736829,7.08141419 Z" id="Shape" fill="url(#linearGradient-3)"></path>
                <g id="Group-9" transform="translate(11.926212, 0.000462)">
                    <polygon id="Path" fill="#06416F" points="4.27464304 0 0.351744036 0 5.61144365 7.54960849 0 15.4838442 3.922899 15.4838442 7.82240617 9.81665673 7.82240617 9.81665673 9.35760427 7.58512587"></polygon>
                    <polygon id="Path" fill="url(#linearGradient-4)" points="11.2376155 7.52708528 16.4973151 0 12.5302315 0 9.02665299 5.29382186 10.5627175 7.58512587 9.02665299 9.81665673 12.9036347 15.4838442 16.8490592 15.4838442"></polygon>
                </g>
            </g>
        </g>
    </g>
</svg>