<svg data-name="Layer 1" xmlns="http://www.w3.org/2000/svg" viewBox="0 0 1440 370"><path fill="#003156" d="M1439.29.01V370H0V247.78l-.71-.18V43.35l.71.27V.01h1439.29z"/><path opacity=".8" fill="#002541" d="M1079.25 370H0V247.78l-.71-.18V43.35l.71.27V.01h243.95L719.13 210.5l115 50.92 44.26 19.62 153.58 68.02 47.28 20.94z"/><path opacity=".7" fill="#004d73" d="M1439.29.01V370H359.17l47.33-20.96 153.55-68.05 44.26-19.61 114.82-50.88L1194.12.01h245.17z"/><path fill="#006799" opacity=".8" d="M905.76 370H0V247.78l-.71-.18V43.35l.71.27 604.31 217.76 114.98 41.43L764.2 319l141.56 51z"/><path fill="#00a47e" opacity=".8" d="M1439.29 43.35V370H532.82l141.56-51 44.91-16.19 114.84-41.39 605.16-218.07z"/><path opacity=".6" fill="#004d73" d="M827.81 370H0V247.78l-.71-.18V94.56l.71.24 560.05 186.19L674.38 319l44.91 14.92L827.81 370z"/><path opacity=".4" fill="#006799" d="M1439.29 94.56V370H610.77l108.52-36.08L764.2 319l114.19-37.96 560.9-186.48z"/><path fill="#004173" opacity=".3" d="M490.69 370H0V247.78l406.5 101.26L490.69 370z"/><path opacity=".5" fill="#004d73" d="M1439.29 247.6V370h-491.4l84.08-20.94 407.32-101.46z"/><path fill="#001c31" opacity=".4" d="M-1.16 0h1440v370h-1440z"/></svg>