<svg width="64" height="64" xmlns="http://www.w3.org/2000/svg"><defs><linearGradient x1="50%" y1="0%" x2="50%" y2="100%" id="a"><stop stop-color="#00A47E" offset="0%"/><stop stop-color="#006799" offset="100%"/></linearGradient></defs><g fill="none" fill-rule="evenodd"><rect fill="url(#a)" width="64" height="64" rx="4"/><g fill="#FFF" fill-rule="nonzero" stroke="#FFF" stroke-width=".5"><path d="M43.27 35.1a1.905 1.905 0 00-1.839-1.3h-5.415l-1.677-5.148a1.95 1.95 0 00-3.679 0L28.983 33.8H23.57a1.95 1.95 0 00-1.138 3.504l4.381 3.184-1.67 5.149a1.95 1.95 0 002.977 2.164l4.381-3.192 4.381 3.179a1.95 1.95 0 002.977-2.164l-1.67-5.149 4.38-3.185c.699-.49.986-1.385.702-2.19h0zm-1.462 1.111l-4.758 3.491a.65.65 0 00-.24.728l1.82 5.596a.65.65 0 01-.228.715.65.65 0 01-.748 0l-4.764-3.464a.65.65 0 00-.767 0l-4.764 3.464a.65.65 0 01-.748 0 .65.65 0 01-.227-.715l1.82-5.596a.65.65 0 00-.254-.728l-4.764-3.465a.65.65 0 01.383-1.137h5.889a.65.65 0 00.618-.449l1.82-5.596a.65.65 0 011.209 0l1.82 5.596a.65.65 0 00.65.449h5.888a.65.65 0 01.377 1.15l-.032-.039z"/><path d="M50.05 16.25h-3.9v-1.3a1.95 1.95 0 00-3.9 0v1.3h-3.9v-1.3a1.95 1.95 0 10-3.9 0v1.3h-3.9v-1.3a1.95 1.95 0 10-3.9 0v1.3h-3.9v-1.3a1.95 1.95 0 00-3.9 0v1.3h-3.9A1.95 1.95 0 0013 18.2v9.75a.65.65 0 101.3 0V24.7h36.4v20.15a.65.65 0 101.3 0V18.2a1.95 1.95 0 00-1.95-1.95zm-6.5-1.3a.65.65 0 111.3 0v3.9a.65.65 0 11-1.3 0v-3.9zm-7.8 0a.65.65 0 111.3 0v3.9a.65.65 0 11-1.3 0v-3.9zm-7.8 0a.65.65 0 111.3 0v3.9a.65.65 0 11-1.3 0v-3.9zm-7.8 0a.65.65 0 111.3 0v3.9a.65.65 0 11-1.3 0v-3.9zM14.3 23.4v-5.2a.65.65 0 01.65-.65h3.9v1.3a1.95 1.95 0 003.9 0v-1.3h3.9v1.3a1.95 1.95 0 103.9 0v-1.3h3.9v1.3a1.95 1.95 0 103.9 0v-1.3h3.9v1.3a1.95 1.95 0 003.9 0v-1.3h3.9a.65.65 0 01.65.65v5.2H14.3z"/><path d="M51.35 36.8a.65.65 0 00-.65.65v12.6a.65.65 0 01-.65.65h-35.1a.65.65 0 01-.65-.65v-26.5a.65.65 0 10-1.3 0v26.5A1.95 1.95 0 0014.95 52h35.1A1.95 1.95 0 0052 50.05v-12.6a.65.65 0 00-.65-.65z"/></g></g></svg>