<svg width="64" height="64" xmlns="http://www.w3.org/2000/svg"><defs><linearGradient x1="50%" y1="0%" x2="50%" y2="100%" id="a"><stop stop-color="#00A47E" offset="0%"/><stop stop-color="#006799" offset="100%"/></linearGradient></defs><g fill="none" fill-rule="evenodd"><rect fill="url(#a)" width="64" height="64" rx="4"/><g stroke="#FFF" stroke-linecap="round" stroke-linejoin="round" stroke-width="1.5"><path d="M18.98 35.378a18.219 18.219 0 01-2.133-8.534V12l2.937 1.306a12.3 12.3 0 009.162-.056L31.644 12l2.953 1.31a12.3 12.3 0 009.163-.064L46.44 12v14.844c0 2.7-.604 5.326-1.73 7.727"/><path d="M25.353 27.612l3.374 3.41 9.84-9.946"/><g><path d="M32.13 38.064l2.47 5.222 5.676.865-4.15 3.966L37.165 54l-5.035-2.897L27.095 54l1.039-5.883-4.15-3.966 5.676-.865z"/><path d="M39.693 42.012l1.205-.142 1.82-3.848 1.82 3.848 4.183.637-3.059 2.923.766 4.335-3.71-2.135-3.71 2.135.262-1.484"/><path d="M47.16 40.165l2.495-.343 1.476-3.12 1.476 3.12 3.393.517-2.48 2.37.62 3.516-3.009-1.732-2.552 1.505M24.307 42.012l-1.205-.142-1.82-3.848-1.82 3.848-4.183.637 3.059 2.923-.766 4.335 3.71-2.135 3.71 2.135-.262-1.484"/><path d="M16.84 40.165l-2.495-.343-1.476-3.12-1.476 3.12L8 40.339l2.48 2.37-.62 3.516 3.009-1.732 2.552 1.505"/></g></g></g></svg>