<svg width="64" height="64" xmlns="http://www.w3.org/2000/svg"><defs><linearGradient x1="50%" y1="0%" x2="50%" y2="100%" id="a"><stop stop-color="#00A47E" offset="0%"/><stop stop-color="#006799" offset="100%"/></linearGradient></defs><g fill="none" fill-rule="evenodd"><rect fill="url(#a)" width="64" height="64" rx="4"/><g fill="#FFF" fill-rule="nonzero"><path d="M31.5 53C43.374 53 53 43.374 53 31.5S43.374 10 31.5 10 10 19.626 10 31.5c.013 11.869 9.631 21.487 21.5 21.5zm0-41.567c11.083 0 20.067 8.984 20.067 20.067S42.583 51.567 31.5 51.567 11.433 42.583 11.433 31.5c.013-11.077 8.99-20.054 20.067-20.067z"/><path d="M17.918 43.478c.382 0 .75-.153 1.02-.423L35.002 26.99l2.866-2.867 5.185-5.185c.292-.292.445-.695.42-1.107a1.413 1.413 0 00-.539-1.029c-7.412-5.774-17.966-5.122-24.61 1.523-6.644 6.644-7.297 17.197-1.522 24.61a1.411 1.411 0 001.116.542zM29.422 18.6a3.595 3.595 0 002.795 2.795v4.372H30.65c.085-.23.13-.472.132-.717a2.15 2.15 0 00-4.3 0c.003.245.047.487.132.717H25.05v-4.372a3.595 3.595 0 002.795-2.795h1.577zm4.783 7.167h-.555v-1.434h1.987l-1.432 1.434zM32.217 19.9a2.15 2.15 0 01-1.302-1.301h1.302v1.301zm-4.3 5.149a.717.717 0 111.433 0 .717.717 0 01-1.433 0zm-2.867-5.149V18.6h1.301a2.15 2.15 0 01-1.301 1.301zm-1.433 5.866h-2.15a.717.717 0 01-.717-.717.7.7 0 01.22-.51.686.686 0 01.497-.207h2.15v1.434zm-2.867 1.301c.23.085.472.13.717.132h11.306L20.75 39.234V27.068zm-6.391 2.993A17.302 17.302 0 0130.06 14.359a17.168 17.168 0 0111.984 3.558v.006L37.07 22.9H33.65v-4.3c0-.792-.642-1.433-1.433-1.433H25.05c-.792 0-1.433.641-1.433 1.433v4.3h-2.15a2.162 2.162 0 00-2.15 2.15v15.618l-1.386 1.386a17.17 17.17 0 01-3.572-11.993zM22.264 41.744l-2.318 2.318a1.443 1.443 0 00-.42 1.108c.023.404.22.779.538 1.028a18.574 18.574 0 0011.455 3.935 18.621 18.621 0 0014.68-30.07 1.413 1.413 0 00-1.028-.538 1.448 1.448 0 00-1.109.42L22.265 41.742l-.001.001zm22.805-20.798c5.333 6.839 4.735 16.58-1.395 22.716-6.13 6.135-15.872 6.742-22.715 1.414l2.107-2.11h17.75c.792 0 1.434-.641 1.434-1.433v-4.3c.792 0 1.433-.641 1.433-1.433v-2.867c0-.791-.641-1.433-1.433-1.433v-4.3c0-.792-.642-1.433-1.433-1.433h-.565l4.817-4.821zm-6.25 6.254h1.998v4.3H40.1a2.867 2.867 0 000 5.733h.717v4.3H24.498L38.82 27.2zm1.281 8.6a1.433 1.433 0 010-2.867h2.15V35.8H40.1z"/></g></g></svg>