<svg xmlns="http://www.w3.org/2000/svg" xmlns:xlink="http://www.w3.org/1999/xlink" preserveAspectRatio="none" width="1440" height="424"><defs><path fill="#003156" d="M1440 424V0H0v424h1440z" id="a"/><path fill="#002541" d="M917.5 0H679.25L0 424h917.5V0z" id="c"/><path fill="#004D73" d="M240.9 0H0v424h919.85L240.9 0z" id="e"/><path fill="#006799" d="M706.35 358.65V0L0 358.65h706.35z" id="f"/><path fill="#00A47E" d="M0 0v359.8h708.5L0 0z" id="g"/><path fill="#004D73" d="M611.45 286.45V0L0 286.45h611.45z" id="i"/><path fill="#006799" d="M0 0v287.45h613.6L0 0z" id="k"/><path fill="#004173" d="M201.05 70.55V0L0 70.55h201.05z" id="m"/><path fill="#004D73" d="M0 0v71.3h203.15L0 0z" id="o"/><path fill="#001C31" d="M1440 424V0H0v424h1440z" id="p"/><filter id="b" x="-20%" y="-20%" width="140%" height="140%" color-interpolation-filters="sRGB"><feColorMatrix in="SourceGraphic" values="1 0 0 0 0 0 1 0 0 0 0 0 1 0 0 0 0 0 0.8 0" result="result1"/></filter><filter id="d" x="-20%" y="-20%" width="140%" height="140%" color-interpolation-filters="sRGB"><feColorMatrix in="SourceGraphic" values="1 0 0 0 0 0 1 0 0 0 0 0 1 0 0 0 0 0 0.7 0" result="result1"/></filter><filter id="h" x="-20%" y="-20%" width="140%" height="140%" color-interpolation-filters="sRGB"><feColorMatrix in="SourceGraphic" values="1 0 0 0 0 0 1 0 0 0 0 0 1 0 0 0 0 0 0.6 0" result="result1"/></filter><filter id="j" x="-20%" y="-20%" width="140%" height="140%" color-interpolation-filters="sRGB"><feColorMatrix in="SourceGraphic" values="1 0 0 0 0 0 1 0 0 0 0 0 1 0 0 0 0 0 0.4 0" result="result1"/></filter><filter id="l" x="-20%" y="-20%" width="140%" height="140%" color-interpolation-filters="sRGB"><feColorMatrix in="SourceGraphic" values="1 0 0 0 0 0 1 0 0 0 0 0 1 0 0 0 0 0 0.3 0" result="result1"/></filter><filter id="n" x="-20%" y="-20%" width="140%" height="140%" color-interpolation-filters="sRGB"><feColorMatrix in="SourceGraphic" values="1 0 0 0 0 0 1 0 0 0 0 0 1 0 0 0 0 0 0.5 0" result="result1"/></filter></defs><use xlink:href="#a"/><use filter="url(#b)" xlink:href="#c" transform="translate(522.25)"/><use filter="url(#d)" xlink:href="#e"/><use filter="url(#b)" xlink:href="#f" transform="translate(733.65 65.35)"/><use filter="url(#b)" xlink:href="#g" transform="translate(0 64.2)"/><use filter="url(#h)" xlink:href="#i" transform="translate(828.55 137.55)"/><use filter="url(#j)" xlink:href="#k" transform="translate(0 136.55)"/><use filter="url(#l)" xlink:href="#m" transform="translate(1238.95 353.45)"/><use filter="url(#n)" xlink:href="#o" transform="translate(0 352.7)"/><use filter="url(#j)" xlink:href="#p"/></svg>