
<svg xmlns="http://www.w3.org/2000/svg" version="1.1" xmlns:xlink="http://www.w3.org/1999/xlink" preserveAspectRatio="none" x="0px" y="0px" width="1440px" height="424px" viewBox="0 0 1440 424">
<defs>
<filter id="Filter_1" x="-20%" y="-20%" width="140%" height="140%" color-interpolation-filters="sRGB">
<feColorMatrix in="SourceGraphic" type="matrix" values="1 0 0 0 0 0 1 0 0 0 0 0 1 0 0 0 0 0 0.8 0" result="result1"/>
</filter>

<filter id="Filter_2" x="-20%" y="-20%" width="140%" height="140%" color-interpolation-filters="sRGB">
<feColorMatrix in="SourceGraphic" type="matrix" values="1 0 0 0 0 0 1 0 0 0 0 0 1 0 0 0 0 0 0.7 0" result="result1"/>
</filter>

<filter id="Filter_3" x="-20%" y="-20%" width="140%" height="140%" color-interpolation-filters="sRGB">
<feColorMatrix in="SourceGraphic" type="matrix" values="1 0 0 0 0 0 1 0 0 0 0 0 1 0 0 0 0 0 0.6 0" result="result1"/>
</filter>

<filter id="Filter_4" x="-20%" y="-20%" width="140%" height="140%" color-interpolation-filters="sRGB">
<feColorMatrix in="SourceGraphic" type="matrix" values="1 0 0 0 0 0 1 0 0 0 0 0 1 0 0 0 0 0 0.4 0" result="result1"/>
</filter>

<filter id="Filter_5" x="-20%" y="-20%" width="140%" height="140%" color-interpolation-filters="sRGB">
<feColorMatrix in="SourceGraphic" type="matrix" values="1 0 0 0 0 0 1 0 0 0 0 0 1 0 0 0 0 0 0.3 0" result="result1"/>
</filter>

<filter id="Filter_6" x="-20%" y="-20%" width="140%" height="140%" color-interpolation-filters="sRGB">
<feColorMatrix in="SourceGraphic" type="matrix" values="1 0 0 0 0 0 1 0 0 0 0 0 1 0 0 0 0 0 0.5 0" result="result1"/>
</filter>

<g id="Layer9_0_FILL">
<path fill="#003156" stroke="none" d="
M 1440 424
L 1440 0 0 0 0 424 1440 424 Z"/>
</g>

<g id="EA_Hero_overlay_copy_svg_1_rightup__Path__0_Layer0_0_FILL">
<path fill="#002541" stroke="none" d="
M 917.5 0
L 679.25 0 0 424 917.5 424 917.5 0 Z"/>
    <animateTransform
            attributeName="transform"
            begin="0"
            dur="2s"
            type="translate"
            from="1000 0"
            to="0 0"
            repeatCount="1"
    />
</g>

<g id="EA_Hero_overlay_copy_svg_1_leftup__Path__0_Layer0_0_FILL">
<path fill="#004D73" stroke="none" d="
M 240.9 0
L 0 0 0 424 919.85 424 240.9 0 Z"/> <animateTransform
        attributeName="transform"
        begin="0"
        dur="2s"
        type="translate"
        from="-1000 0"
        to="0 0"
        repeatCount="1"
/>
</g>

<g id="EA_Hero_overlay_copy_svg_1_rightmidup__Path__0_Layer0_0_FILL">
<path fill="#006799" stroke="none" d="
M 706.35 358.65
L 706.35 0 0 358.65 706.35 358.65 Z"/>
    <animateTransform
            attributeName="transform"
            begin="0s"
            dur="2s"
            type="translate"
            from="980 0"
            to="0 0"
            repeatCount="1"
    />
</g>

<g id="EA_Hero_overlay_copy_svg_1_leftmidup__Path__0_Layer0_0_FILL">
<path fill="#00A47E" stroke="none" d="
M 0 0
L 0 359.8 708.5 359.8 0 0 Z"/>
    <animateTransform
            attributeName="transform"
            begin="0s"
            dur="2s"
            type="translate"
            from="-980 0"
            to="0 0"
            repeatCount="1"
    />
</g>

<g id="EA_Hero_overlay_copy_svg_1_rightmid__Path__0_Layer0_0_FILL">
<path fill="#004D73" stroke="none" d="
M 611.45 286.45
L 611.45 0 0 286.45 611.45 286.45 Z"/>
    <animateTransform
            attributeName="transform"
            begin="0s"
            dur="2s"
            type="translate"
            from="900 0"
            to="0 0"
            repeatCount="1"
    />
</g>

<g id="EA_Hero_overlay_copy_svg_1_leftmid__Path__0_Layer0_0_FILL">
<path fill="#006799" stroke="none" d="
M 0 0
L 0 287.45 613.6 287.45 0 0 Z"/>
    <animateTransform
            attributeName="transform"
            begin="0s"
            dur="2s"
            type="translate"
            from="-900 0"
            to="0 0"
            repeatCount="1"
    />
</g>

<g id="EA_Hero_overlay_copy_svg_1_rightlow_rightlow_0_Layer0_0_FILL">
<path fill="#004173" stroke="none" d="
M 201.05 70.55
L 201.05 0 0 70.55 201.05 70.55 Z"/>
    <animateTransform
            attributeName="transform"
            begin="0s"
            dur="2s"
            type="translate"
            from="800 0"
            to="0 0"
            repeatCount="1"
    />
</g>

<g id="EA_Hero_overlay_copy_svg_1_leftlow_leftlow_0_Layer0_0_FILL">
<path fill="#004D73" stroke="none" d="
M 0 0
L 0 71.3 203.15 71.3 0 0 Z"/>
    <animateTransform
            attributeName="transform"
            begin="0s"
            dur="2s"
            type="translate"
            from="-800 0"
            to="0 0"
            repeatCount="1"
    />
</g>

<g id="EA_Hero_overlay_copy_svg_1_overlay_overlay_0_Layer0_0_FILL">
<path fill="#001C31" stroke="none" d="
M 1440 424
L 1440 0 0 0 0 424 1440 424 Z"/>
</g>
</defs>

<g transform="matrix( 1, 0, 0, 1, 0,0) ">
<use xlink:href="#Layer9_0_FILL"/>
</g>

<g transform="matrix( 1, 0, 0, 1, 522.25,0) ">
<g transform="matrix( 1, 0, 0, 1, 0,0) ">
<use filter="url(#Filter_1)" xlink:href="#EA_Hero_overlay_copy_svg_1_rightup__Path__0_Layer0_0_FILL"/>
</g>
</g>

<g transform="matrix( 1, 0, 0, 1, 0,0) ">
<g transform="matrix( 1, 0, 0, 1, 0,0) ">
<use filter="url(#Filter_2)" xlink:href="#EA_Hero_overlay_copy_svg_1_leftup__Path__0_Layer0_0_FILL"/>
</g>
</g>

<g transform="matrix( 1, 0, 0, 1, 733.65,65.35) ">
<g transform="matrix( 1, 0, 0, 1, 0,0) ">
<use filter="url(#Filter_1)" xlink:href="#EA_Hero_overlay_copy_svg_1_rightmidup__Path__0_Layer0_0_FILL"/>
</g>
</g>

<g transform="matrix( 1, 0, 0, 1, 0,64.2) ">
<g transform="matrix( 1, 0, 0, 1, 0,0) ">
<use filter="url(#Filter_1)" xlink:href="#EA_Hero_overlay_copy_svg_1_leftmidup__Path__0_Layer0_0_FILL"/>
</g>
</g>

<g transform="matrix( 1, 0, 0, 1, 828.55,137.55) ">
<g transform="matrix( 1, 0, 0, 1, 0,0) ">
<use filter="url(#Filter_3)" xlink:href="#EA_Hero_overlay_copy_svg_1_rightmid__Path__0_Layer0_0_FILL"/>
</g>
</g>

<g transform="matrix( 1, 0, 0, 1, 0,136.55) ">
<g transform="matrix( 1, 0, 0, 1, 0,0) ">
<use filter="url(#Filter_4)" xlink:href="#EA_Hero_overlay_copy_svg_1_leftmid__Path__0_Layer0_0_FILL"/>
</g>
</g>

<g transform="matrix( 1, 0, 0, 1, 1238.95,353.45) ">
<g transform="matrix( 1, 0, 0, 1, 0,0) ">
<use filter="url(#Filter_5)" xlink:href="#EA_Hero_overlay_copy_svg_1_rightlow_rightlow_0_Layer0_0_FILL"/>
</g>
</g>

<g transform="matrix( 1, 0, 0, 1, 0,352.7) ">
<g transform="matrix( 1, 0, 0, 1, 0,0) ">
<use filter="url(#Filter_6)" xlink:href="#EA_Hero_overlay_copy_svg_1_leftlow_leftlow_0_Layer0_0_FILL"/>
</g>
</g>

<g transform="matrix( 1, 0, 0, 1, 0,0) ">
<g transform="matrix( 1, 0, 0, 1, 0,0) ">
<use filter="url(#Filter_4)" xlink:href="#EA_Hero_overlay_copy_svg_1_overlay_overlay_0_Layer0_0_FILL"/>
</g>
</g>
</svg>
