<?xml version="1.0" encoding="UTF-8"?>
<svg width="9px" height="12px" viewBox="0 0 9 12" version="1.1" xmlns="http://www.w3.org/2000/svg" xmlns:xlink="http://www.w3.org/1999/xlink">
    <title>icons / pin</title>
    <g id="Page-1" stroke="none" stroke-width="1" fill="none" fill-rule="evenodd">
        <g id="expert_air_assets-board" transform="translate(-79.000000, -3626.000000)" fill="#00C295" fill-rule="nonzero">
            <g id="icons-/-pin" transform="translate(79.000000, 3626.000000)">
                <path d="M1.79899767,0.945929619 L1.79899767,0.945929619 C0.824973018,1.71626735 0.188790247,2.86970824 0.0357128788,4.14288004 C-0.117364489,5.41605183 0.225733849,6.7002465 0.986666138,7.70223595 L4.09586506,11.7983938 C4.19259905,11.9258208 4.3390552,12 4.49390751,12 C4.64875983,12 4.79521598,11.9258208 4.89194996,11.7983938 L8.01333386,7.70865626 C8.77426615,6.70666681 9.11736449,5.42247214 8.96428712,4.14930035 C8.81120975,2.87612855 8.17502698,1.72268766 7.20100233,0.952349929 L7.20100233,0.952349929 C5.6019136,-0.315067872 3.4007952,-0.317683912 1.79899767,0.945929619 Z M4.25532827,6.48157553 C3.27939211,6.34670315 2.56326851,5.44794975 2.6060381,4.41167425 C2.64880768,3.37539875 3.43627443,2.5455601 4.41963729,2.50048917 C5.40300014,2.45541825 6.25586283,3.21007492 6.38384857,4.23852411 C6.4605248,4.85466777 6.26106456,5.47336514 5.84409119,5.91277496 C5.42711781,6.35218478 4.84001138,6.56237755 4.25532827,6.48157553 Z" id="Shape"></path>
            </g>
        </g>
    </g>
</svg>