<svg width="100" height="100" xmlns="http://www.w3.org/2000/svg"><defs><linearGradient x1="50%" y1="0%" x2="50%" y2="100%" id="a"><stop stop-color="#00A47E" offset="0%"/><stop stop-color="#006799" offset="100%"/></linearGradient><linearGradient x1="50%" y1="0%" x2="50%" y2="100%" id="b"><stop stop-color="#00A47E" offset="0%"/><stop stop-color="#006799" offset="100%"/></linearGradient><linearGradient x1="50%" y1="0%" x2="50%" y2="100%" id="c"><stop stop-color="#00A47E" offset="0%"/><stop stop-color="#006799" offset="100%"/></linearGradient><linearGradient x1="50%" y1="0%" x2="50%" y2="100%" id="d"><stop stop-color="#00A47E" offset="0%"/><stop stop-color="#006799" offset="100%"/></linearGradient></defs><g fill-rule="nonzero" fill="none"><path d="M98.912 54.795l-6.4-2.057a22.75 22.75 0 00-.054-4.843L99 44.964a1.562 1.562 0 00.91-1.633 50.025 50.025 0 00-3.422-12.702 1.556 1.556 0 00-1.7-.94l-6.569 1.105a15.597 15.597 0 00-2.545-4.154l4.245-5.495a1.562 1.562 0 000-1.909 50.668 50.668 0 00-9.34-9.251 1.56 1.56 0 00-1.972.056l-5.045 4.34a18.958 18.958 0 00-4.246-2.465l.812-6.852a1.562 1.562 0 00-.958-1.629A50.637 50.637 0 0056.463.015a1.531 1.531 0 00-1.666 1.041l-2.298 6.658a17.65 17.65 0 00-5.113-.048L45 1.106A1.554 1.554 0 0043.332.092a50.091 50.091 0 00-12.708 3.422 1.558 1.558 0 00-.935 1.715l1.235 6.968a16.99 16.99 0 00-4.247 2.5l-5.492-4.583a1.56 1.56 0 00-1.956-.037 50.693 50.693 0 00-9.252 9.349 1.562 1.562 0 00.073 1.987l4.675 5.258a19.342 19.342 0 00-2.53 4.396l-7.057-1.183a1.565 1.565 0 00-1.704.947A50.468 50.468 0 00.013 43.53a1.562 1.562 0 001.098 1.695l6.602 1.998a17.63 17.63 0 00.018 5.033L1.042 55.03a1.562 1.562 0 00-.95 1.65A49.983 49.983 0 003.51 69.377a1.57 1.57 0 001.785.923l6.74-1.517a15.245 15.245 0 002.528 4.39l-4.474 5.674a1.564 1.564 0 000 1.923 50.623 50.623 0 009.343 9.254c.59.45 1.416.424 1.977-.063l5.354-4.67a23.656 23.656 0 004.435 2.547l-1.302 6.998c-.135.727.258 1.45.942 1.73a50.585 50.585 0 0012.697 3.421 1.565 1.565 0 001.667-1l2.42-6.426a17.5 17.5 0 005.278.044l2.104 6.25a1.572 1.572 0 001.685 1.051 50.091 50.091 0 0012.685-3.414 1.564 1.564 0 00.933-1.73l-1.24-6.613a20.94 20.94 0 004.561-2.602l5.183 4.34c.563.469 1.377.485 1.959.039a50.693 50.693 0 009.253-9.346c.43-.56.43-1.34 0-1.902l-4.21-5.483a13.399 13.399 0 002.192-3.935l6.922.871c.7.087 1.372-.305 1.642-.956a50.468 50.468 0 003.42-12.708 1.56 1.56 0 00-1.076-1.672zM94.12 66.877l-7.008-.883a1.562 1.562 0 00-1.694 1.106 10.935 10.935 0 01-2.756 4.956 1.564 1.564 0 00-.104 2.027l4.25 5.533a47.706 47.706 0 01-6.97 7.052l-5.223-4.375a1.565 1.565 0 00-2.084.07 17.268 17.268 0 01-5.783 3.334 1.564 1.564 0 00-.991 1.752l1.24 6.618a46.952 46.952 0 01-9.465 2.55l-2.117-6.279a1.562 1.562 0 00-1.798-1.041 15.027 15.027 0 01-6.685-.046 1.558 1.558 0 00-1.793.975L42.7 96.704a47.345 47.345 0 01-9.512-2.57l1.298-6.975a1.56 1.56 0 00-.965-1.74 21.635 21.635 0 01-5.883-3.374 1.565 1.565 0 00-1.994.05l-5.326 4.66a47.446 47.446 0 01-7.013-6.941l4.513-5.723a1.56 1.56 0 00-.077-2.025 13.451 13.451 0 01-3.227-5.624 1.554 1.554 0 00-1.823-1.021l-6.788 1.527a47.019 47.019 0 01-2.547-9.506l6.724-2.787a1.562 1.562 0 00.936-1.74 16.338 16.338 0 01-.036-6.589 1.56 1.56 0 00-1.093-1.718l-6.586-1.994a47.323 47.323 0 012.563-9.447l7.083 1.185a1.569 1.569 0 001.723-1.014 17.399 17.399 0 013.3-5.738 1.562 1.562 0 00-.046-2.022l-4.673-5.263a47.562 47.562 0 016.91-6.976l5.504 4.583a1.565 1.565 0 002.009 0 15.383 15.383 0 015.541-3.25 1.56 1.56 0 001.012-1.75L32.99 5.935a47.129 47.129 0 019.51-2.564l2.396 6.585a1.556 1.556 0 001.773.998 15.952 15.952 0 016.622.041 1.56 1.56 0 001.736-1.041l2.306-6.667a47.379 47.379 0 019.541 2.606l-.81 6.848a1.562 1.562 0 00.998 1.646 17.741 17.741 0 015.58 3.24 1.558 1.558 0 001.984-.045l5.037-4.335a47.444 47.444 0 017.038 6.966l-4.271 5.53a1.564 1.564 0 00.056 1.976 14.84 14.84 0 013.317 5.417 1.552 1.552 0 001.708.962l6.556-1.1a46.846 46.846 0 012.581 9.608l-6.504 2.916c-.62.279-.99.926-.914 1.602.344 2.139.35 4.318.019 6.458-.13.765.322 1.51 1.062 1.746l6.39 2.054a47.542 47.542 0 01-2.586 9.495h.006z" fill="url(#a)"/><path d="M57.865 50.193a1.544 1.544 0 00-2.012-.148l-2.198-2.238a1.565 1.565 0 00-1.1-.468c-.41.024-.8.181-1.11.448l-.755.741-14.405-14.663c.267-.285.416-.661.416-1.052l-.035-2.392a1.569 1.569 0 00-.775-1.329l-6.27-3.664a1.562 1.562 0 00-1.876.235L26.02 27.36a1.562 1.562 0 00-.268 1.875l3.541 6.335c.262.466.743.767 1.277.798l2.325.129h.088c.405 0 .793-.16 1.083-.442l14.393 14.653-.752.754a1.564 1.564 0 00-.019 2.21l2.196 2.238c-.485.6-.435 1.47.115 2.01l18.333 18.666a1.56 1.56 0 002.208.02l5.64-5.539a1.563 1.563 0 00.02-2.21L57.865 50.193zM31.604 33.3l-2.548-4.545.023-.021 4.475 2.614v.833l-1.171 1.157-.78-.038zM53.59 52.201l-1.508 1.483-1.073-1.09.752-.739.752-.74 1.077 1.086zm15.877 21.082L53.32 56.849l3.412-3.352 16.143 16.436-3.408 3.35z" fill="url(#b)"/><path d="M45.328 56.967l-6.502 6.25a1.56 1.56 0 00-.356 1.735 6.26 6.26 0 01-7.083 8.59l3.266-3.15a2.72 2.72 0 00.07-3.844l-1.128-1.167a2.708 2.708 0 00-3.84-.066L26.5 68.46a6.25 6.25 0 018.833-6.762 1.565 1.565 0 001.741-.29l8.512-8.184a1.562 1.562 0 00-2.164-2.252l-7.798 7.489a9.39 9.39 0 00-11.129 13.553 1.562 1.562 0 002.446.354l4.692-4.528.558.579-4.691 4.53a1.56 1.56 0 00.268 2.457 9.412 9.412 0 0011.458-1.234 9.333 9.333 0 002.5-9.407L47.5 59.22a1.562 1.562 0 10-2.165-2.254h-.006z" fill="url(#c)"/><path d="M75.415 28.755a1.542 1.542 0 00-1.344.416l-6.56 6.333-1.746-1.808 6.56-6.331a1.564 1.564 0 00-.331-2.5 11.112 11.112 0 00-15.745 13.68l-4.923 4.713a1.563 1.563 0 102.16 2.258l5.715-5.468a1.562 1.562 0 00.312-1.836 7.991 7.991 0 018.894-11.395l-5.096 4.919a2.72 2.72 0 00-.071 3.843l2.312 2.396a2.72 2.72 0 003.842.066l5.1-4.912a7.993 7.993 0 01-11.702 8.487 1.567 1.567 0 00-1.835.238l-3.942 3.766a1.563 1.563 0 102.16 2.258l3.157-3.016a11.112 11.112 0 0014.224-15.255 1.562 1.562 0 00-1.141-.852z" fill="url(#d)"/></g></svg>