<svg width="53" height="52" xmlns="http://www.w3.org/2000/svg"><g fill="#FFF" fill-rule="nonzero"><path d="M26.005 52C11.62 52 0 40.383 0 26h3.32c0 12.502 10.18 22.68 22.685 22.68C38.51 48.68 48.69 38.503 48.69 26c0-12.502-10.18-22.68-22.685-22.68-6.529 0-12.726 2.765-17.042 7.744L6.418 8.85C11.398 3.21 18.48 0 26.005 0 40.391 0 52.01 11.617 52.01 26S40.39 52 26.005 52z"/><path d="M15.714 11.949h-9.96V2.102h3.32V8.63h6.64zM20.472 22.57c0 1.55-1.107 3.098-2.656 4.647l-2.877 2.987h5.865v2.766H10.402v-2.323l4.98-5.31c.774-.775 1.328-1.771 1.328-2.435 0-.774-.554-1.217-1.55-1.217-1.106 0-2.545.664-3.762 1.77l-1.328-2.544c1.77-1.328 3.652-2.102 5.644-2.102 2.766.11 4.758 1.548 4.758 3.761zM28.66 27.328V24.34h3.32v2.988h1.882v2.655H31.98v3.098h-3.32v-3.098h-6.64V27.66l4.427-8.52h3.43l-4.094 8.188h2.877zM40.17 33.08v-2.765h-2.878v2.766h-1.77V26h1.77v2.877h2.878V26h1.77v7.08z"/></g></svg>