<svg width="64" height="64" xmlns="http://www.w3.org/2000/svg"><defs><linearGradient x1="50%" y1="0%" x2="50%" y2="100%" id="a"><stop stop-color="#00A47E" offset="0%"/><stop stop-color="#006799" offset="100%"/></linearGradient></defs><g fill="none" fill-rule="evenodd"><rect width="64" height="64" rx="4" fill="url(#a)"/><g transform="translate(14 12)" fill="#FFF" fill-rule="nonzero"><path d="M5.346 13.954h16v1.439h-16zM5.346 21.579h12v1.439h-12zM16.365 8.632H9.25c-1.572 0-2.846-1.289-2.846-2.878 0-1.589 1.274-2.877 2.846-2.877h.07A3.569 3.569 0 0112.809 0a3.569 3.569 0 013.487 2.877h.07c1.572 0 2.847 1.288 2.847 2.877 0 1.59-1.275 2.878-2.847 2.878zM9.25 4.316a1.43 1.43 0 00-1.423 1.438A1.43 1.43 0 009.25 7.193h7.115a1.43 1.43 0 001.423-1.439 1.43 1.43 0 00-1.423-1.438h-.711a.707.707 0 01-.503-.21.723.723 0 01-.209-.51 2.146 2.146 0 00-2.134-2.157 2.146 2.146 0 00-2.135 2.157c0 .191-.075.374-.208.51a.707.707 0 01-.503.21H9.25z"/><ellipse cx="12.808" cy="3.596" rx="1.067" ry="1.079"/><path d="M5.346 29.204h9v1.439h-9z"/><path d="M17.788 38.123H2.846C1.276 38.12.002 36.833 0 35.246V8.632c.002-1.589 1.275-2.876 2.846-2.878h2.135c.393 0 .711.322.711.72 0 .397-.318.719-.711.719H2.846c-.786 0-1.422.644-1.423 1.439v26.614c0 .794.637 1.438 1.423 1.438h14.942c.393 0 .712.322.712.72 0 .397-.319.719-.712.719zM24.904 20.14a.708.708 0 01-.503-.21.723.723 0 01-.209-.509V8.631c0-.794-.637-1.437-1.423-1.438h-2.134a.715.715 0 01-.712-.72c0-.397.319-.719.712-.719h2.134c1.571.002 2.844 1.29 2.846 2.878v10.79c0 .19-.074.373-.208.508a.708.708 0 01-.503.21zM27.038 41c-5.501 0-9.961-4.509-9.961-10.07 0-5.562 4.46-10.07 9.961-10.07C32.54 20.86 37 25.368 37 30.93c-.007 5.559-4.463 10.063-9.962 10.07zm0-18.702c-4.715 0-8.538 3.865-8.538 8.632 0 4.767 3.823 8.631 8.538 8.631 4.716 0 8.539-3.864 8.539-8.631-.005-4.765-3.825-8.627-8.539-8.632z"/><path d="M27.038 27.293a.707.707 0 01-.503-.211.723.723 0 01-.208-.509v-1.32c0-.398.318-.72.711-.72.393 0 .712.322.712.72v1.32c0 .191-.075.374-.208.509a.707.707 0 01-.504.21zM27.038 37.326a.707.707 0 01-.503-.21.723.723 0 01-.208-.51v-1.32c0-.397.318-.719.711-.719.393 0 .712.322.712.72v1.32c0 .19-.075.374-.208.509a.707.707 0 01-.504.21z"/><path d="M27.038 35.942c-1.582.067-2.92-1.172-2.996-2.771 0-.398.319-.72.712-.72.393 0 .711.322.711.72a1.603 1.603 0 001.573 1.333c.775 0 1.438-.562 1.574-1.333a1.25 1.25 0 00-.905-1.258l-1.787-.601a2.698 2.698 0 01-1.878-2.623c.138-1.569 1.438-2.772 2.996-2.772 1.559 0 2.859 1.203 2.997 2.772 0 .397-.319.72-.712.72a.715.715 0 01-.711-.72 1.603 1.603 0 00-1.574-1.333c-.774 0-1.437.562-1.573 1.333a1.25 1.25 0 00.905 1.257l1.787.602a2.698 2.698 0 011.878 2.623c-.075 1.6-1.414 2.838-2.997 2.771z"/></g></g></svg>