<svg width="45" height="41" xmlns="http://www.w3.org/2000/svg"><defs><linearGradient x1="50%" y1="0%" x2="50%" y2="100%" id="a"><stop stop-color="#00A47E" offset="0%"/><stop stop-color="#006799" offset="100%"/></linearGradient><linearGradient x1="50%" y1="0%" x2="50%" y2="100%" id="b"><stop stop-color="#00A47E" offset="0%"/><stop stop-color="#006799" offset="100%"/></linearGradient></defs><g stroke-width="1.62" fill="none" fill-rule="evenodd" stroke-linecap="round" stroke-linejoin="round"><path d="M28 23.957C28 31.713 21.732 38 14 38S0 31.713 0 23.957v-.794c.247-8.062 4.118-9.946 4.118-9.946s.922 6.61 5.764 6.61a38.28 38.28 0 01.824-9.088A20.24 20.24 0 0118.118 0c0 8.558 8.96 11.483 9.882 22.453-.05.496 0 .975 0 1.504z" stroke="url(#a)" transform="translate(9 2)"/><path d="M11.532 10.409a5.958 5.958 0 01-1.62 4.254 5.921 5.921 0 01-4.145 1.859 5.921 5.921 0 01-4.145-1.859 5.958 5.958 0 01-1.62-4.254v-.347c.1-3.503 1.647-4.329 1.647-4.329s.38 2.875 2.372 2.875a17.55 17.55 0 01.346-3.949A8.825 8.825 0 017.414 0c0 3.717 3.69 4.957 4.035 9.764.066.215.083.43.083.645z" transform="translate(17.233 23.478)" stroke="url(#b)"/></g></svg>