<svg width="45" height="43" xmlns="http://www.w3.org/2000/svg"><defs><linearGradient x1="50%" y1="0%" x2="50%" y2="100%" id="a"><stop stop-color="#00A47E" offset="0%"/><stop stop-color="#006799" offset="100%"/></linearGradient><linearGradient x1="50%" y1="0%" x2="50%" y2="100%" id="b"><stop stop-color="#00A47E" offset="0%"/><stop stop-color="#006799" offset="100%"/></linearGradient><linearGradient x1="50%" y1="0%" x2="50%" y2="100%" id="c"><stop stop-color="#00A47E" offset="0%"/><stop stop-color="#006799" offset="100%"/></linearGradient></defs><g transform="translate(2 1)" stroke-width="1.8" fill="none" fill-rule="evenodd"><ellipse stroke="url(#a)" cx="20.5" cy="20.5" rx="3.186" ry="3.185"/><path d="M23.049 26.415c2.184 1.548 15.11 5.188 17.477-3.185 2.367-8.281-4.734-13.833-7.92-9.92-.273.274-.728 1.366-1.638 2.367" stroke="url(#b)"/><path d="M14.674 23.048c-1.547 2.184-5.188 15.107 3.186 17.473 8.284 2.367 13.927-4.64 9.922-7.917-.182-.182-.728-.455-1.274-.82" stroke="url(#c)"/><path d="M17.951 14.585C15.767 13.037 2.841 9.397.474 17.77c-2.367 8.281 4.734 13.833 7.92 9.92.182-.183.455-.638.819-1.275" stroke="url(#b)"/><path d="M26.326 17.952C27.873 15.768 31.514 2.845 23.14.479c-8.284-2.367-13.927 4.64-9.922 7.917.182.182.728.455 1.274.82" stroke="url(#c)"/></g></svg>