<svg width="47" height="44" xmlns="http://www.w3.org/2000/svg"><defs><linearGradient x1="50%" y1="0%" x2="50%" y2="100%" id="a"><stop stop-color="#00A47E" offset="0%"/><stop stop-color="#006799" offset="100%"/></linearGradient><linearGradient x1="50%" y1="0%" x2="50%" y2="100%" id="b"><stop stop-color="#00A47E" offset="0%"/><stop stop-color="#006799" offset="100%"/></linearGradient><linearGradient x1="50%" y1="0%" x2="50%" y2="100%" id="c"><stop stop-color="#00A47E" offset="0%"/><stop stop-color="#006799" offset="100%"/></linearGradient><linearGradient x1="50%" y1="0%" x2="50%" y2="100%" id="d"><stop stop-color="#00A47E" offset="0%"/><stop stop-color="#006799" offset="100%"/></linearGradient><linearGradient x1="50%" y1="0%" x2="50%" y2="100%" id="e"><stop stop-color="#00A47E" offset="0%"/><stop stop-color="#006799" offset="100%"/></linearGradient><linearGradient x1="50%" y1="0%" x2="50%" y2="100%" id="f"><stop stop-color="#00A47E" offset="0%"/><stop stop-color="#006799" offset="100%"/></linearGradient><linearGradient x1="50%" y1="0%" x2="50%" y2="100%" id="g"><stop stop-color="#00A47E" offset="0%"/><stop stop-color="#006799" offset="100%"/></linearGradient><linearGradient x1="50%" y1="0%" x2="50%" y2="100%" id="h"><stop stop-color="#00A47E" offset="0%"/><stop stop-color="#006799" offset="100%"/></linearGradient></defs><g fill-rule="nonzero" stroke-width=".25" fill="none"><path d="M2.609 14.957A3.533 3.533 0 010 13.816l.797-.756a2.448 2.448 0 001.817.794c.699 0 1.337-.28 1.818-.794a3.542 3.542 0 012.609-1.142c.998 0 1.926.409 2.608 1.142l-.796.756a2.448 2.448 0 00-1.818-.794c-.698 0-1.337.28-1.817.794a3.551 3.551 0 01-2.61 1.141z" stroke="url(#a)" fill="url(#a)" transform="translate(36.35 14.082)"/><path d="M2.598 9.02A3.528 3.528 0 010 7.89l.791-.761a2.452 2.452 0 001.807.783h.01c.694 0 1.338-.287 1.818-.8A3.532 3.532 0 017.03 5.959 3.535 3.535 0 019.65 7.09l-.792.761a2.46 2.46 0 00-1.812-.789h-.01a2.45 2.45 0 00-1.807.8 3.518 3.518 0 01-2.61 1.147c-.016.011-.016.011-.021.011zM2.598 3.061A3.528 3.528 0 010 1.931l.791-.762a2.452 2.452 0 001.807.784h.01c.694 0 1.338-.287 1.818-.8A3.532 3.532 0 017.03 0a3.535 3.535 0 012.62 1.13l-.792.762a2.46 2.46 0 00-1.812-.789h-.01a2.45 2.45 0 00-1.807.8 3.518 3.518 0 01-2.61 1.147c-.016.011-.016.011-.021.011z" stroke="url(#b)" fill="url(#b)" transform="translate(36.35 14.082)"/><path d="M32.42 42a.883.883 0 01-.12-.011l-18.573-4.28a.548.548 0 01-.426-.54V19.065h1.091v17.667l17.482 4.026V1.356L14.392 8.333v10.733h-1.091V7.958c0-.226.136-.43.344-.513L32.218.038a.552.552 0 01.507.055c.148.105.24.276.24.458v40.897a.554.554 0 01-.545.552z" stroke="url(#c)" fill="url(#c)" transform="translate(1 1)"/><path d="M6.79 27.505c-1.72 0-3.122-1.412-3.122-3.155 0-1.743 1.402-3.155 3.122-3.155 1.719 0 3.121 1.418 3.121 3.155 0 1.738-1.397 3.155-3.121 3.155zm0-5.201c-1.12 0-2.03.921-2.03 2.052 0 1.13.91 2.052 2.03 2.052 1.118 0 2.03-.922 2.03-2.052s-.912-2.052-2.03-2.052z" stroke="url(#d)" fill="url(#d)" transform="translate(1 1)"/><path d="M9.366 18.609c-1.354 0-2.516-1.043-2.653-2.433-.142-1.478.928-2.802 2.396-2.945 1.463-.143 2.773.938 2.915 2.421.142 1.478-.928 2.802-2.396 2.946-.088.005-.175.01-.262.01zm0-4.291c-.05 0-.104 0-.153.005-.862.088-1.501.866-1.414 1.743a1.583 1.583 0 001.725 1.428 1.591 1.591 0 001.414-1.742h0a1.59 1.59 0 00-1.572-1.434z" stroke="url(#e)" fill="url(#e)" transform="translate(1 1)"/><path d="M1.714 20.236A1.726 1.726 0 010 18.504c0-.954.77-1.732 1.714-1.732s1.714.778 1.714 1.732-.77 1.732-1.714 1.732zm0-2.366a.625.625 0 00-.622.628c0 .348.278.63.622.63a.625.625 0 00.622-.63.625.625 0 00-.622-.628z" stroke="url(#f)" fill="url(#f)" transform="translate(1 1)"/><path d="M17.203 25.95a1.79 1.79 0 01-1.78-1.798 1.79 1.79 0 011.78-1.798c.983 0 1.78.805 1.78 1.798a1.79 1.79 0 01-1.78 1.798zm0-2.499a.696.696 0 000 1.39.696.696 0 000-1.39z" stroke="url(#g)" fill="url(#g)" transform="translate(1 1)"/><path d="M22.164 20.853c-1.282 0-2.325-1.053-2.325-2.35 0-1.295 1.043-2.349 2.325-2.349 1.283 0 2.325 1.054 2.325 2.35s-1.042 2.35-2.325 2.35zm0-3.601c-.682 0-1.233.562-1.233 1.246 0 .69.557 1.247 1.233 1.247.683 0 1.234-.563 1.234-1.247 0-.684-.551-1.246-1.234-1.246z" stroke="url(#h)" fill="url(#h)" transform="translate(1 1)"/></g></svg>