<svg width="45" height="41" xmlns="http://www.w3.org/2000/svg"><defs><linearGradient x1="50%" y1="0%" x2="50%" y2="100%" id="a"><stop stop-color="#00A47E" offset="0%"/><stop stop-color="#006799" offset="100%"/></linearGradient><linearGradient x1="50%" y1="0%" x2="50%" y2="100%" id="b"><stop stop-color="#00A47E" offset="0%"/><stop stop-color="#006799" offset="100%"/></linearGradient></defs><g fill-rule="nonzero" fill="none"><path d="M38.95 16.644L21.528 1.024l-.478-.427a1 1 0 00-1.333 0l-.477.427-3.256 2.892v-.089H9.119v6.23l-7.304 6.587-1.482 1.325A1 1 0 001 19.715h4.027V34h30.712V19.715h4.026a1 1 0 00.667-1.746l-1.481-1.325zm-4.971 1.29V32.22H6.787V17.935H3.003l7.92-7.076V5.607h3.388v2.27l6.072-5.518 17.424 15.62h-3.828v-.044z" fill="url(#a)" transform="translate(2 4)"/><path d="M15.939 27.859a.703.703 0 01-.484-.223c-.22-.267-.22-.712.044-.934.748-.668 1.188-1.558 1.188-2.493 0-.934-.396-1.824-1.144-2.536a4.607 4.607 0 01-1.584-3.516c0-1.335.616-2.581 1.628-3.471.264-.223.704-.223.924.044.22.267.22.712-.044.935-.748.667-1.188 1.558-1.188 2.492 0 .935.396 1.825 1.144 2.537a4.607 4.607 0 011.584 3.515c0 1.336-.616 2.582-1.628 3.472a.626.626 0 01-.44.178zM20.119 27.903a.703.703 0 01-.484-.222c-.22-.267-.22-.712.044-.935.748-.667 1.188-1.558 1.188-2.492 0-.935-.396-1.825-1.144-2.537a4.607 4.607 0 01-1.584-3.515c0-1.336.616-2.582 1.628-3.472.264-.222.704-.222.924.045.22.267.22.712-.044.934-.748.668-1.188 1.558-1.188 2.493 0 .934.396 1.824 1.144 2.536a4.607 4.607 0 011.584 3.516c0 1.335-.616 2.581-1.628 3.471a.626.626 0 01-.44.178zM24.739 27.948a.703.703 0 01-.484-.223c-.22-.267-.22-.712.044-.934.748-.668 1.188-1.558 1.188-2.493 0-.934-.396-1.824-1.144-2.536a4.607 4.607 0 01-1.584-3.516c0-1.335.616-2.581 1.628-3.471.264-.223.704-.223.924.044.22.267.22.712-.044.935-.748.667-1.188 1.558-1.188 2.492 0 .935.396 1.825 1.144 2.537a4.607 4.607 0 011.584 3.515c0 1.336-.616 2.582-1.628 3.472a.562.562 0 01-.44.178z" fill="url(#b)" transform="translate(2 4)"/></g></svg>